<svg id="Layer_1" data-name="Layer 1" xmlns="http://www.w3.org/2000/svg" xmlns:xlink="http://www.w3.org/1999/xlink" viewBox="0 0 3722.98 2710.43"><defs><style>.cls-1,.cls-14,.cls-15,.cls-16,.cls-17,.cls-21,.cls-23,.cls-3,.cls-9{fill:none;}.cls-2{clip-path:url(#clip-path);}.cls-14,.cls-17,.cls-23,.cls-3{stroke:#000;}.cls-14,.cls-16,.cls-17,.cls-21,.cls-23,.cls-3{stroke-miterlimit:2;}.cls-3,.cls-9{stroke-width:1.42px;}.cls-4{fill:#999;}.cls-5{clip-path:url(#clip-path-14);}.cls-6{fill:#fff;}.cls-7{clip-path:url(#clip-path-22);}.cls-8{fill:#333;}.cls-15,.cls-9{stroke:#ff0;stroke-miterlimit:3;}.cls-9{stroke-dasharray:8.5 8.5 42.51 8.5;}.cls-10{clip-path:url(#clip-path-31);}.cls-11{fill:gray;}.cls-12{fill:#ccc;}.cls-13{clip-path:url(#clip-path-51);}.cls-14,.cls-15{stroke-width:1.42px;}.cls-15{stroke-dasharray:8.5 8.5 42.51 8.5;}.cls-16,.cls-21{stroke:#c00;}.cls-16,.cls-17{stroke-width:2.83px;}.cls-18{clip-path:url(#clip-path-79);}.cls-19{clip-path:url(#clip-path-83);}.cls-20{clip-path:url(#clip-path-96);}.cls-21,.cls-23{stroke-width:2.83px;}.cls-22{clip-path:url(#clip-path-98);}.cls-24{clip-path:url(#clip-path-101);}.cls-25{clip-path:url(#clip-path-102);}.cls-26{clip-path:url(#clip-path-104);}.cls-27{clip-path:url(#clip-path-107);}.cls-28{clip-path:url(#clip-path-111);}.cls-29{clip-path:url(#clip-path-115);}.cls-30{clip-path:url(#clip-path-116);}.cls-31{clip-path:url(#clip-path-119);}.cls-32{clip-path:url(#clip-path-120);}.cls-33{clip-path:url(#clip-path-122);}.cls-34{clip-path:url(#clip-path-125);}.cls-35{clip-path:url(#clip-path-126);}.cls-36{clip-path:url(#clip-path-129);}.cls-37{clip-path:url(#clip-path-139);}.cls-38{clip-path:url(#clip-path-140);}.cls-39{clip-path:url(#clip-path-142);}.cls-40{clip-path:url(#clip-path-145);}.cls-41{clip-path:url(#clip-path-151);}.cls-42{clip-path:url(#clip-path-155);}.cls-43{clip-path:url(#clip-path-156);}.cls-44{clip-path:url(#clip-path-165);}.cls-45{clip-path:url(#clip-path-171);}</style><clipPath id="clip-path" transform="translate(0 -218.54)"><rect class="cls-1" width="4808" height="2870"/></clipPath><clipPath id="clip-path-14" transform="translate(0 -218.54)"><path class="cls-1" d="M1657.38,471.35l-81.31,24.86,59.39,194.24,405.77,1320.4,19.89,65a56.7,56.7,0,1,0,102.06,49.31l68.34-74.73,929.3-1016.11L3304.28,877.5l.34,1.08,3.32,21.84,4.26,13.51,135.15-42.61-4.26-13.52L3433.29,838,3337,532.58l-3.32-21.84-4.26-13.51-135.15,42.61,4.26,13.51,6.37,12.85H1686.38Zm454.08,1582.42a48.18,48.18,0,1,1-48.18,48.18A48.18,48.18,0,0,1,2111.46,2053.76ZM3234.55,656.34l32.32,102.49L3081.35,961.67,2152,1977.78l-27.1,29.63-6.2-20.27-402-1321.56-2.83-9.25Z"/></clipPath><clipPath id="clip-path-22" transform="translate(0 -218.54)"><path class="cls-1" d="M1657.38,471.35l-81.31,24.86,59.39,194.24,405.77,1320.4,19.89,65a56.7,56.7,0,0,1,102.06,49.31l68.34-74.73,929.3-1016.11L3304.28,877.5l.34,1.08,3.32,21.84,4.26,13.51,135.15-42.61-4.26-13.52L3433.29,838,3337,532.58l-3.32-21.84-4.26-13.51-135.15,42.61,4.26,13.51,6.37,12.85H1686.38Zm1577.17,185,32.32,102.49L3081.35,961.67,2152,1977.78l-27.1,29.63-6.2-20.27-402-1321.56-2.83-9.25Z"/></clipPath><clipPath id="clip-path-31" transform="translate(0 -218.54)"><polygon class="cls-1" points="0 0 0 2278.99 0 2870 1178.72 2870 4808 2870 4808 0 0 0"/></clipPath><clipPath id="clip-path-51" transform="translate(0 -218.54)"><polygon class="cls-1" points="0 0 0 2010.33 0 2870 771.7 2870 4808 2870 4808 0 0 0"/></clipPath><clipPath id="clip-path-79" transform="translate(0 -218.54)"><rect class="cls-1" x="88.86" y="63.69" width="4808" height="2870"/></clipPath><clipPath id="clip-path-83" transform="translate(0 -218.54)"><rect class="cls-1" x="-10.5" y="-197.47" width="4808" height="2870"/></clipPath><clipPath id="clip-path-96" transform="translate(0 -218.54)"><polygon class="cls-1" points="0 0 0 2249.26 0 2870 2082.16 2870 4808 2870 4808 0 0 0"/></clipPath><clipPath id="clip-path-98" transform="translate(0 -218.54)"><polygon class="cls-1" points="0 0 0 2282.4 0 2870 2082.16 2870 4808 2870 4808 0 0 0"/></clipPath><clipPath id="clip-path-101" transform="translate(0 -218.54)"><polygon class="cls-1" points="0 0 0 2139.35 0 2870 1926.97 2870 4808 2870 4808 0 0 0"/></clipPath><clipPath id="clip-path-102" transform="translate(0 -218.54)"><polygon class="cls-1" points="0 0 0 2289.48 0 2870 2239.68 2870 4808 2870 4808 0 0 0"/></clipPath><clipPath id="clip-path-104" transform="translate(0 -218.54)"><polygon class="cls-1" points="0 0 0 2319.87 0 2870 2239.68 2870 4808 2870 4808 0 0 0"/></clipPath><clipPath id="clip-path-107" transform="translate(0 -218.54)"><polygon class="cls-1" points="0 0 0 2542.26 0 2870 2240.37 2870 4808 2870 4808 0 0 0"/></clipPath><clipPath id="clip-path-111" transform="translate(0 -218.54)"><rect class="cls-1" x="-36.9" y="-37.26" width="4808" height="2870"/></clipPath><clipPath id="clip-path-115" transform="translate(0 -218.54)"><rect class="cls-1" x="-50.65" y="108.01" width="4808" height="2870"/></clipPath><clipPath id="clip-path-116" transform="translate(0 -218.54)"><polygon class="cls-1" points="0 0 0 2251.2 0 2870 1354.22 2870 4808 2870 4808 0 0 0"/></clipPath><clipPath id="clip-path-119" transform="translate(0 -218.54)"><polygon class="cls-1" points="-36.9 7.86 -36.91 2087.79 -36.91 2877.86 1615.46 2877.86 4771.09 2877.86 4771.1 7.86 -36.9 7.86"/></clipPath><clipPath id="clip-path-120" transform="translate(0 -218.54)"><rect class="cls-1" width="4808" height="2870"/></clipPath><clipPath id="clip-path-122" transform="translate(0 -218.54)"><polygon class="cls-1" points="0 0 0 2458.58 0 2870 4808 2870 4808 0 0 0"/></clipPath><clipPath id="clip-path-125" transform="translate(0 -218.54)"><polygon class="cls-1" points="0 0 0 2577.63 0 2870 4808 2870 4808 0 0 0"/></clipPath><clipPath id="clip-path-126" transform="translate(0 -218.54)"><polygon class="cls-1" points="0 0 0 1864.39 0 2870 1157.2 2870 4808 2870 4808 0 0 0"/></clipPath><clipPath id="clip-path-129" transform="translate(0 -218.54)"><polygon class="cls-1" points="-36.9 108.01 -36.91 2660.36 -36.9 2978.01 4771.1 2978.01 4771.1 108.01 -36.9 108.01"/></clipPath><clipPath id="clip-path-139" transform="translate(0 -218.54)"><rect class="cls-1" x="67.79" y="-72.95" width="4808" height="2870"/></clipPath><clipPath id="clip-path-140" transform="translate(0 -218.54)"><polygon class="cls-1" points="0 0 0 1797.37 0 2870 1066.55 2870 4808 2870 4808 0 0 0"/></clipPath><clipPath id="clip-path-142" transform="translate(0 -218.54)"><polygon class="cls-1" points="0 0 0 1797.37 0 2870 1070.33 2870 4808 2870 4808 0 0 0"/></clipPath><clipPath id="clip-path-145" transform="translate(0 -218.54)"><polygon class="cls-1" points="0 0 0 1868.94 0 2870 1287.99 2870 4808 2870 4808 0 0 0"/></clipPath><clipPath id="clip-path-151" transform="translate(0 -218.54)"><polygon class="cls-1" points="0 0 0 2310.61 0 2870 2036.99 2870 4808 2870 4808 0 0 0"/></clipPath><clipPath id="clip-path-155" transform="translate(0 -218.54)"><rect class="cls-1" x="-195" y="157.22" width="4808" height="2870"/></clipPath><clipPath id="clip-path-156" transform="translate(0 -218.54)"><polygon class="cls-1" points="0 0 0 2870 0 2870 4808 2870 4808 0 0 0"/></clipPath><clipPath id="clip-path-165" transform="translate(0 -218.54)"><rect class="cls-1" x="-50.65" y="-37.26" width="4808" height="2870"/></clipPath><clipPath id="clip-path-171" transform="translate(0 -218.54)"><polygon class="cls-1" points="0 0 0 1736.59 0 2870 4808 2870 4808 0 0 0"/></clipPath></defs><title>giocarreraPrint</title><g class="cls-2"><path class="cls-1" d="M958,1864.82l-31.95-63.5h0a17,17,0,0,1,14.5-24.94c49.29-1.77,73.29-32.72,73.29-32.72l15.57-30.75a164,164,0,0,0,4.13-16.93,17,17,0,0,1,11.2-13.33l193-381,373.7-718.85.49-.94.79-1.44.89-1.49,1-1.57,1.13-1.67,1.27-1.8,1.44-2,1.65-2.25L1622,567l2.38-3.41,3.42-5.28,4.62-7.46.24,1.1.26,1.16.29,1.23.31,1.29.33,1.35.35,1.4.37,1.45.39,1.5.41,1.54.43,1.58.45,1.61.46,1.64.47,1.66.49,1.68.5,1.7.51,1.71.52,1.72.52,1.72.53,1.71.53,1.71.54,1.69.54,1.68.54,1.65.54,1.63.53,1.6.53,1.56.52,1.52.51,1.48.51,1.43.5,1.38.48,1.32.47,1.26.46,1.2.44,1.14.42,1.07.41,1,.39.92.37.84-4.06,9.24-2.92,6.91-1.93,4.88-1.52,4-1.29,3.39-1.13,3-1,2.6-.93,2.29-.86,2-.8,1.76-.76,1.53-.7,1.35-351.06,675.3-253.41,475.17L1014,1824.2l-21.18-11Zm92.33-157.32a8.79,8.79,0,1,0-8.79-8.79A8.79,8.79,0,0,0,1050.33,1707.5Zm-109.24,94.66a8.79,8.79,0,1,0-8.79-8.79A8.79,8.79,0,0,0,941.09,1802.15Z" transform="translate(0 -218.54)"/></g><g class="cls-2"><path class="cls-3" d="M1029.42,1712.9a164,164,0,0,0,4.13-16.93,17,17,0,0,1,11.2-13.33Zm-15.57,30.75ZM958,1864.82l-31.95-63.5h0a17,17,0,0,1,14.5-24.94c49.29-1.77,73.29-32.72,73.29-32.72l-19.46,38.41-13.07,25.15,11.52,6Zm-16.91-62.66a8.79,8.79,0,1,0-8.79-8.79A8.79,8.79,0,0,0,941.09,1802.15ZM1631.54,648.58l-351.06,675.3-253.41,475.17L1014,1824.2l-32.69-17,13.07-25.15,243.35-480.4,373.7-718.85" transform="translate(0 -218.54)"/></g><g class="cls-2"><path class="cls-1" d="M2111.46,2158.64a56.7,56.7,0,0,1-50.35-82.75l-19.89-65L1635.45,690.45l-59.39-194.24,81.31-24.86,29,94.86h1518.5l-6.37-12.85-4.26-13.51,135.15-42.61,4.26,13.51,3.32,21.84L3433.29,838l9.81,19.79,4.26,13.51L3312.2,913.94l-4.26-13.51-3.32-21.84-.34-1.08-143.46,156.86-929.3,1016.11-68.34,74.73A56.7,56.7,0,0,1,2111.46,2158.64Zm13.48-151.21h0l27.1-29.63,929.3-1016.11,185.52-202.84-32.32-102.49H1713.94l2.83,9.25,402,1321.56Zm-13.48,142.71a48.18,48.18,0,1,0-48.18-48.18A48.18,48.18,0,0,0,2111.46,2150.14Z" transform="translate(0 -218.54)"/></g><g class="cls-2"><path class="cls-3" d="M2111.46,2158.64a56.7,56.7,0,0,1-50.35-82.75l-19.89-65L1635.45,690.45l-59.39-194.24,81.31-24.86,29,94.86h1518.5l-6.37-12.85-4.26-13.51,135.15-42.61,4.26,13.51,3.32,21.84L3433.29,838l9.81,19.79,4.26,13.51L3312.2,913.94l-4.26-13.51-3.32-21.84-.34-1.08-143.46,156.86-929.3,1016.11-68.34,74.73A56.7,56.7,0,0,1,2111.46,2158.64Zm13.48-151.21h0l27.1-29.63,929.3-1016.11,185.52-202.84-32.32-102.49H1713.94l2.83,9.25,402,1321.56Zm-13.48,142.71a48.18,48.18,0,1,0-48.18-48.18A48.18,48.18,0,0,0,2111.46,2150.14Z" transform="translate(0 -218.54)"/></g><g class="cls-2"><path class="cls-4" d="M929.28,2017.44a2.83,2.83,0,0,1-2.81-2.69,2.92,2.92,0,0,1,0-.52,2.87,2.87,0,0,1,.11-.51l.74-2.19.74-2.19a2.83,2.83,0,0,0-1.52-3.48,24.1,24.1,0,0,1-11.91-31.92l.28-.58c.09-.19.19-.38.29-.57a141.39,141.39,0,0,0,16.1-67.63,6.42,6.42,0,0,0-.92-2.93,6.33,6.33,0,0,0-8.73-2.07l.3-.19a14,14,0,1,1,3.32-20.49c.2.29.91,1.2,1.15,1.44a6.51,6.51,0,0,0,.78.67,6.39,6.39,0,0,0,1.85.92,6.25,6.25,0,0,0,1.88.29q.31,0,.62,0a6.26,6.26,0,0,0,2.33-.7,6.34,6.34,0,0,0,3.11-3.72l0,0q2.06-6.62,4.44-13.14l0,.15a284.15,284.15,0,0,1,12.31-28.68,22.46,22.46,0,0,1,3-4.55,22.82,22.82,0,0,1,4-3.71l6.59-4.79,6.59-4.79a20.27,20.27,0,0,1,31.12,9.93,20.42,20.42,0,0,1,1.05,6,56.64,56.64,0,0,0,38,52.37,20.28,20.28,0,0,1,5.25,35.53l-6.59,4.79-6.59,4.79a22.69,22.69,0,0,1-10,4.08q-5.88.87-11.8,1.49t-11.86,1h-.23l-.27,0h-.35l-.43,0-.5,0-.55,0-.54,0q-7.4.39-14.81.39h-.62q-7.71,0-15.41-.45l-.62,0-.66,0a12.13,12.13,0,0,0-1.28.14,11.33,11.33,0,0,0-9.25,13.09l2.19,12.79,2.19,12.79a33.89,33.89,0,0,1-1.26,16.51c-.1.31-.22.64-.34,1s-.25.66-.37,1-.27.63-.4.92-.25.56-.36.8l-.18.35-.14.29-.06.11,0,.08,0,0,0,0a33.95,33.95,0,0,1-28.74,18.6Zm55.66-165.32a14.52,14.52,0,1,0-11.77-6A14.47,14.47,0,0,0,984.94,1852.12Zm-70.62,41.93a5.86,5.86,0,1,0-4.74-2.41A5.83,5.83,0,0,0,914.32,1894.06Zm52.16,24.21a14.71,14.71,0,1,0-11.91-6.06A14.63,14.63,0,0,0,966.48,1918.27Zm68.44,2.64a14.52,14.52,0,1,0-11.77-6A14.47,14.47,0,0,0,1034.92,1920.91Zm-98.11,75a12.64,12.64,0,1,0-10.23-5.21A12.58,12.58,0,0,0,936.81,1995.91Z" transform="translate(0 -218.54)"/></g><g class="cls-2"><path class="cls-3" d="M929.28,2017.44a2.83,2.83,0,0,1-2.81-2.69,2.92,2.92,0,0,1,0-.52,2.87,2.87,0,0,1,.11-.51l.74-2.19.74-2.19a2.83,2.83,0,0,0-1.52-3.48,24.1,24.1,0,0,1-11.91-31.92l.28-.58c.09-.19.19-.38.29-.57a141.39,141.39,0,0,0,16.1-67.63,6.42,6.42,0,0,0-.92-2.93,6.33,6.33,0,0,0-8.73-2.07l.3-.19a14,14,0,1,1,3.32-20.49c.2.29.91,1.2,1.15,1.44a6.51,6.51,0,0,0,.78.67,6.39,6.39,0,0,0,1.85.92,6.25,6.25,0,0,0,1.88.29q.31,0,.62,0a6.26,6.26,0,0,0,2.33-.7,6.34,6.34,0,0,0,3.11-3.72l0,0q2.06-6.62,4.44-13.14l0,.15a284.15,284.15,0,0,1,12.31-28.68,22.46,22.46,0,0,1,3-4.55,22.82,22.82,0,0,1,4-3.71l6.59-4.79,6.59-4.79a20.27,20.27,0,0,1,31.12,9.93,20.42,20.42,0,0,1,1.05,6,56.64,56.64,0,0,0,38,52.37,20.28,20.28,0,0,1,5.25,35.53l-6.59,4.79-6.59,4.79a22.69,22.69,0,0,1-10,4.08q-5.88.87-11.8,1.49t-11.86,1h-.23l-.27,0h-.35l-.43,0-.5,0-.55,0-.54,0q-7.4.39-14.81.39h-.62q-7.71,0-15.41-.45l-.62,0-.66,0a12.13,12.13,0,0,0-1.28.14,11.33,11.33,0,0,0-9.25,13.09l2.19,12.79,2.19,12.79a33.89,33.89,0,0,1-1.26,16.51c-.1.31-.22.64-.34,1s-.25.66-.37,1-.27.63-.4.92-.25.56-.36.8l-.18.35-.14.29-.06.11,0,.08,0,0,0,0a33.95,33.95,0,0,1-28.74,18.6Zm55.66-165.32a14.52,14.52,0,1,0-11.77-6A14.47,14.47,0,0,0,984.94,1852.12Zm-70.62,41.93a5.86,5.86,0,1,0-4.74-2.41A5.83,5.83,0,0,0,914.32,1894.06Zm52.16,24.21a14.71,14.71,0,1,0-11.91-6.06A14.63,14.63,0,0,0,966.48,1918.27Zm68.44,2.64a14.52,14.52,0,1,0-11.77-6A14.47,14.47,0,0,0,1034.92,1920.91Zm-98.11,75a12.64,12.64,0,1,0-10.23-5.21A12.58,12.58,0,0,0,936.81,1995.91Z" transform="translate(0 -218.54)"/></g><g class="cls-2"><path class="cls-3" d="M936.91,1878.72q-2.58,8.29-4.64,16.72l.08-.27a35.31,35.31,0,0,0-1,9.07m45.13,13.07a17,17,0,1,1,3.77-23.75A17,17,0,0,1,976.46,1917.32Zm-58-23.39A7.09,7.09,0,1,1,920,1884,7.09,7.09,0,0,1,918.48,1893.93Zm26.65,100.81a14.17,14.17,0,1,1,3.13-19.8A14.18,14.18,0,0,1,945.13,1994.74Zm-12.79-99.55a35.11,35.11,0,1,1-1,9.07m-6-24.82.37.49a14,14,0,0,1-3.1,19.59l-.53.37m73.08-48.19a17.43,17.43,0,1,1,3.85-24.35A17.43,17.43,0,0,1,995.18,1851.7Zm50,68.79a17.44,17.44,0,1,1,3.85-24.35A17.44,17.44,0,0,1,1045.16,1920.49Z" transform="translate(0 -218.54)"/></g><g class="cls-2"><path class="cls-3" d="M1944.19,2097a25.51,25.51,0,1,1,25.07-20.94A25.66,25.66,0,0,1,1944.19,2097Z" transform="translate(0 -218.54)"/></g><g class="cls-2"><path class="cls-3" d="M1414.91,1035.69a22.68,22.68,0,1,1,20.14-12.22A22.58,22.58,0,0,1,1414.91,1035.69Z" transform="translate(0 -218.54)"/></g><g class="cls-2"><path class="cls-1" d="M2066.55,2136.54l-462.1-84.25L1077.9,1938l-27.88-5.08,8.64-47.4,27.88,5.08,533,78.88,462.1,84.24a56.7,56.7,0,0,0-15.09,82.81Z" transform="translate(0 -218.54)"/></g><g class="cls-2"><path class="cls-3" d="M2066.55,2136.54l-462.1-84.25L1077.9,1938l-27.88-5.08,8.64-47.4,27.88,5.08,533,78.88,462.1,84.24a56.7,56.7,0,0,0-15.09,82.81Z" transform="translate(0 -218.54)"/></g><g class="cls-2"><path class="cls-1" d="M1014,1824.19l-32.69-17,13.07-25.15,243.35-480.4,372.82-717.17.57-1,.63-1,.7-1,.76-1,.83-1,.89-.94,1-.93,1-.93,1.09-.92,1.16-.92,1.22-.92,1.29-.93,1.36-.95,1.43-1,1.5-1,1.58-1.06,1.67-1.14,1.78-1.26,1.93-1.46,2.16-1.82,2.63-2.65,4.49-6.18.52,1.52.53,1.56.53,1.6.54,1.63.54,1.65.54,1.68.54,1.69.53,1.71.53,1.71.52,1.72.52,1.72.51,1.71.5,1.7.49,1.68.47,1.66.46,1.64-3.53,9.27-1.69,5.66-1.25,4.74-1.05,4.28-.94,4-.87,3.74-.81,3.54-.77,3.36-.74,3.19-.71,3-.69,2.87-.67,2.71-.65,2.55-.63,2.4-.62,2.24-.6,2.08-.59,1.92-.58,1.76-.57,1.59-.56,1.43-.55,1.27-.54,1.11.66-1.27-.66,1.27h0l-350.4,674L1027.08,1799ZM1610.56,584.48l.87-1.68-.87,1.68Z" transform="translate(0 -218.54)"/></g><g class="cls-2"><polyline class="cls-3" points="1631.54 430.03 1280.48 1105.33 1027.08 1580.5 1014 1605.65 981.31 1588.66 994.38 1563.51 1237.73 1083.11 1611.43 364.26"/></g><g class="cls-5"><path class="cls-6" d="M2779.5,633.5a18.51,18.51,0,0,1-13-5.61c-4.93-5.61-4.93-14.84-4.93-14.84a23.61,23.61,0,0,1,5-14.84c5-5.56,13.24-5.56,13.24-5.56a18.88,18.88,0,0,1,13.23,5.55c5,5.55,5,14.8,5,14.8a23.64,23.64,0,0,1-5,15C2788,633.5,2779.5,633.5,2779.5,633.5Zm-81.54,0c-9.28,0-14.24-5.28-14.24-5.28-5-5.28-5-15.15-5-15.15,0-9.68,5-15.05,5-15.05,5-5.38,14.09-5.38,14.09-5.38a54.4,54.4,0,0,1,12.36,1.76v5.1c-8-2.73-12.33-2.73-12.33-2.73a13.24,13.24,0,0,0-9.79,4.29c-3.48,4.29-3.48,12.07-3.48,12.07,0,7.7,3.73,12,3.73,12,3.73,4.27,10.46,4.27,10.46,4.27a24.42,24.42,0,0,0,6-1V615.73h5.5v15.75A49.59,49.59,0,0,1,2698,633.5Zm330.46-1V593.61h5.52v38.91Zm-53.93,0V593.61h5.42l19.59,30.05V593.61h4.73v38.91h-5.39l-19.62-30.05v30.05Zm-54,0V593.61H2926l19.59,30.05V593.61h4.73v38.91h-5.39l-19.62-30.05v30.05Zm-55.9,0,15.43-38.91h5.47l15.2,38.91h-6l-4.23-10.78H2874l-4.29,10.78Zm-34.18,0-14.7-38.91h5.52l12,31.87,11.62-31.87h4.84l-14.12,38.91Zm-96.34,0V593.61h5.52v38.91Zm45.46-3.16a12.18,12.18,0,0,0,9.23-4.3c3.26-4.3,3.26-12.13,3.26-12.13,0-7.6-3.27-11.88-3.27-11.88-3.27-4.29-9.06-4.29-9.06-4.29a12,12,0,0,0-9.07,4.3c-3.26,4.3-3.26,12-3.26,12,0,7.63,3.23,12,3.23,12C2773.87,629.37,2779.58,629.37,2779.58,629.37Zm109.36-11.73-6.63-16.78-6.65,16.78Z" transform="translate(0 -218.54)"/></g><g class="cls-2"><circle class="cls-3" cx="2111.46" cy="1883.4" r="56.69"/></g><g class="cls-2"><path class="cls-1" d="M1038.32,1934.52q-1.08,0-2.17-.08A28.35,28.35,0,0,1,1010,1907.2a51,51,0,0,0-33.47-46.07,28.34,28.34,0,1,1,38.05-27.64,51.05,51.05,0,0,0,33.47,46.07,28.34,28.34,0,0,1-9.73,55ZM985,1851.9a14.29,14.29,0,1,0-11.57-5.89A14.22,14.22,0,0,0,985,1851.9Zm50,68.78a14.28,14.28,0,1,0-11.57-5.89A14.21,14.21,0,0,0,1035,1920.69Z" transform="translate(0 -218.54)"/></g><g class="cls-2"><path class="cls-3" d="M1038.32,1934.52q-1.08,0-2.17-.08A28.35,28.35,0,0,1,1010,1907.2a51,51,0,0,0-33.47-46.07,28.34,28.34,0,1,1,38.05-27.64,51.05,51.05,0,0,0,33.47,46.07,28.34,28.34,0,0,1-9.73,55ZM985,1851.9a14.29,14.29,0,1,0-11.57-5.89A14.22,14.22,0,0,0,985,1851.9Zm50,68.78a14.28,14.28,0,1,0-11.57-5.89A14.21,14.21,0,0,0,1035,1920.69Z" transform="translate(0 -218.54)"/></g><g class="cls-2"><path class="cls-3" d="M958.93,1827a2.84,2.84,0,1,0,5.47,1.49,22.68,22.68,0,0,1,44.53,5.17,56.68,56.68,0,0,0,37.18,51.17,22.68,22.68,0,0,1-8.84,43.95,2.84,2.84,0,1,0-.27,5.67" transform="translate(0 -218.54)"/></g><g class="cls-2"><path class="cls-4" d="M985,1854.62a17,17,0,1,1,17-17A17,17,0,0,1,985,1854.62Zm50,68.79a17,17,0,1,1,17-17A17,17,0,0,1,1035,1923.41Z" transform="translate(0 -218.54)"/></g><g class="cls-2"><path class="cls-3" d="M985,1854.62a17,17,0,1,1,17-17A17,17,0,0,1,985,1854.62Zm50,68.79a17,17,0,1,1,17-17A17,17,0,0,1,1035,1923.41Z" transform="translate(0 -218.54)"/></g><g class="cls-2"><path class="cls-3" d="M1043.24,1906.4l-4.12-7.14h-8.25l-4.12,7.14,4.12,7.14h8.25Zm-50-68.79-4.12-7.14h-8.25l-4.12,7.14,4.12,7.14h8.25Z" transform="translate(0 -218.54)"/></g><g class="cls-7"><path class="cls-3" d="M3204.88,566.21l.08.06.23.19.38.31.52.43.67.55.81.67.95.79,1.08.9,1.21,1,1.29,1.13,1.17,1.23,1.25,1.34,1.33,1.44,1.39,1.53,1.44,1.62,1.48,1.71,1.51,1.79,1.53,1.87,1.54,1.94,1.53,2,1.51,2.07,1.48,2.13,1.43,2.18,1.37,2.22,1.3,2.26,1.22,2.29,1.12,2.32,1,2.34.91,2.35.8,2.36.69,2.36.57,2.35.45,2.34.34,2.32.23,2.29.13,2.26,0,2.22-.05,2.18-.13,2.13-.2,2.07-.26,2-.31,1.94-.35,1.87-.38,1.79-.4,1.71-.42,1.62-.42,1.53-.42,1.44-.41,1.34-.4,1.23-.38,1.13-.35,1-.32.9-.28.79-.25.67-.21.55-.16.43-.12.31-.07.19,0,.06m-1520.61,0-.09-.06-.26-.19-.44-.31-.61-.43-.78-.55-1-.67-1.12-.79-1.29-.9-1.45-1-1.62-1.13-1.78-1.23-1.94-1.34-2.09-1.44-2.25-1.53-2.41-1.62-2.57-1.71-2.73-1.79-2.91-1.87-3.1-1.94-3.34-2-3.66-2.07-4.17-2.13-5.36-2.18L1660,625.2l-.69-2.26-.7-2.29-.71-2.32-.72-2.34-.72-2.35-.72-2.36-.72-2.36-.72-2.35-.72-2.34-.71-2.32-.7-2.29-.69-2.26,5.72-2.22,4-2.18,2.86-2.13,2.39-2.07,2.11-2,1.92-1.94,1.76-1.87,1.63-1.79,1.52-1.71,1.41-1.62,1.31-1.53,1.21-1.44,1.12-1.34,1-1.23.93-1.13.83-1,.74-.9.64-.79.54-.67.44-.55.35-.43.25-.31.15-.19,0-.06" transform="translate(0 -218.54)"/></g><g class="cls-7"><path class="cls-3" d="M3266.86,758.83l.07,0,.21.09.36.16.5.22.63.28.77.35.9.41,1,.48,1.15.54,1.26.61,1.37.68,1.47.76,1.57.83,1.65.91,1.72,1,1.78,1.08,1.83,1.17,1.87,1.27,1.89,1.37,1.9,1.48,1.89,1.6,1.87,1.73,1.82,1.87,1.76,2,1.68,2.17,1.58,2.33,1.47,2.5,1.34,2.67,1.2,2.85,1.06,3,.9,3.19.75,3.34.6,3.49.46,3.61.32,3.71.2,3.79.09,3.84v3.87l-.1,3.88-.17,3.86-.23,3.81-.28,3.75-.32,3.66-.35,3.55-.36,3.43-.37,3.28-.38,3.13-.37,3-.36,2.76-.35,2.56-.33,2.35-.3,2.13-.28,1.9-.25,1.66-.21,1.42-.18,1.17-.14.91-.1.65-.06.39,0,.13M2151.2,2138.29l-.05,0-.16-.15-.27-.25-.38-.35-.49-.44-.59-.54-.69-.64-.8-.73-.9-.82-1-.91-1.09-1-1.18-1.08-1.27-1.16L2141,2129l-1.43-1.31-1.51-1.38-1.58-1.45-1.65-1.51-1.71-1.57-1.77-1.62-1.83-1.67-1.88-1.72-1.92-1.76-2-1.79-2-1.82-2-1.85-2-1.87-2.06-1.89-2.07-1.9-2.08-1.9-1-3.13-1-3.12-.95-3.1-.94-3.08-.93-3-.92-3-.9-3-.88-2.89-.86-2.83-.84-2.75-.82-2.67-.79-2.58-.76-2.48,4.3-7.88,5.16-8.67,3-6.16,2.26-5.18,1.83-4.55,1.54-4.05,1.32-3.62,1.14-3.24,1-2.87.84-2.52.71-2.17.59-1.83.48-1.5.37-1.16.26-.83.16-.5.05-.17" transform="translate(0 -218.54)"/></g><g class="cls-7"><polyline class="cls-3" points="1610.56 365.94 1611.12 364.92 1611.76 363.92 1612.45 362.93 1613.22 361.96 1614.05 361 1614.94 360.06 1615.9 359.12 1616.93 358.2 1618.02 357.28 1619.17 356.36 1620.4 355.43 1621.69 354.5 1623.05 353.55 1624.47 352.58 1625.97 351.58 1627.56 350.52 1629.23 349.37 1631.02 348.11 1632.95 346.65 1635.11 344.83 1637.73 342.18 1642.23 336 1642.75 337.52 1643.28 339.08 1643.81 340.68 1644.35 342.31 1644.88 343.96 1645.42 345.64 1645.96 347.33 1646.49 349.04 1647.02 350.75 1647.55 352.47 1648.06 354.19 1648.57 355.9 1649.07 357.6 1649.56 359.28 1650.03 360.94 1650.49 362.58 1646.96 371.85 1645.27 377.51 1644.02 382.25 1642.96 386.53 1642.02 390.51 1641.16 394.25 1640.35 397.8 1639.58 401.16 1638.84 404.35 1638.13 407.38 1637.44 410.25 1636.78 412.96 1636.13 415.52 1635.49 417.91 1634.88 420.15 1634.27 422.22 1633.68 424.14 1633.1 425.89 1632.53 427.49 1631.97 428.92 1631.42 430.19 1630.88 431.3"/></g><g class="cls-2"><path class="cls-8" d="M1568.42,530.43a15.6,15.6,0,0,1-14.9-11l-.83-2.71A15.59,15.59,0,0,1,1563,497.23l86.73-26.52L1662,467a2.83,2.83,0,0,1,3.54,1.88l3.73,12.2.83,2.71,3.73,12.2a2.83,2.83,0,0,1-1.88,3.54l-12.2,3.73h0L1573,529.75A15.59,15.59,0,0,1,1568.42,530.43Z" transform="translate(0 -218.54)"/></g><g class="cls-2"><path class="cls-3" d="M1568.42,530.43a15.6,15.6,0,0,1-14.9-11l-.83-2.71A15.59,15.59,0,0,1,1563,497.23l86.73-26.52L1662,467a2.83,2.83,0,0,1,3.54,1.88l3.73,12.2.83,2.71,3.73,12.2a2.83,2.83,0,0,1-1.88,3.54l-12.2,3.73h0L1573,529.75A15.59,15.59,0,0,1,1568.42,530.43Z" transform="translate(0 -218.54)"/></g><g class="cls-2"><circle class="cls-4" cx="1569.37" cy="294.53" r="14.17"/></g><g class="cls-2"><circle class="cls-3" cx="1569.37" cy="294.53" r="14.17"/></g><g class="cls-2"><polygon class="cls-3" points="1577.87 294.53 1573.62 287.17 1565.12 287.17 1560.86 294.53 1565.12 301.89 1573.62 301.89 1577.87 294.53"/></g><g class="cls-2"><path class="cls-9" d="M1394.81,1002.56l40.24,20.92M997.66,1815.7l623.83-1200M0,2870H0m1054.34-960.78,1057.12,192.72M3261.83,518.54l118,374.09M1655.7,611.27H3291.07M2111.46,2101.95,3338.17,760.66M2111.46,2101.95,1616.72,483.78" transform="translate(0 -218.54)"/></g><g class="cls-10"><path class="cls-11" d="M352.68,1786.52l-4-2.09L514,1466.33l4,2.09Zm17.47-10.25-4-2.09,149.54-287.67,4,2.09ZM385,1771.1l-4-2.09,139-267.39,4,2.09Zm14.83-5.17-4-2.09,128.46-247.11,4,2.09Zm14.82-5.16-4-2.09,117.93-226.85,4,2.09Zm14.82-5.16-4-2.09,107.4-206.6,4,2.09Zm14.81-5.15-4-2.09L537.12,1562l4,2.09Zm14.81-5.13-4-2.09,86.39-166.18,4,2.09Zm14.8-5.11-4-2.09,75.91-146,4,2.09Zm12.17-.06-4-2.09,70.68-136,4,2.09Zm12.16-.05-4-2.09,65.47-125.93,4,2.09Z" transform="translate(0 -218.54)"/></g><g class="cls-10"><path class="cls-3" d="M352.68,1786.52l-4-2.09L514,1466.33l4,2.09Zm17.47-10.25-4-2.09,149.54-287.67,4,2.09ZM385,1771.1l-4-2.09,139-267.39,4,2.09Zm14.83-5.17-4-2.09,128.46-247.11,4,2.09Zm14.82-5.16-4-2.09,117.93-226.85,4,2.09Zm14.82-5.16-4-2.09,107.4-206.6,4,2.09Zm14.81-5.15-4-2.09L537.12,1562l4,2.09Zm14.81-5.13-4-2.09,86.39-166.18,4,2.09Zm14.8-5.11-4-2.09,75.91-146,4,2.09Zm12.17-.06-4-2.09,70.68-136,4,2.09Zm12.16-.05-4-2.09,65.47-125.93,4,2.09Z" transform="translate(0 -218.54)"/></g><g class="cls-10"><rect class="cls-12" x="59.92" y="1532.96" width="396.78" height="4.96" transform="translate(-1223.2 837.91) rotate(-62.53)"/></g><g class="cls-10"><rect class="cls-3" x="59.92" y="1532.96" width="396.78" height="4.96" transform="translate(-1223.2 837.91) rotate(-62.53)"/></g><g class="cls-10"><ellipse class="cls-3" cx="1074.38" cy="276.57" rx="60.69" ry="42.51" transform="translate(333.45 883.75) rotate(-62.53)"/></g><g class="cls-10"><path d="M423.29,1621.2,347.85,1582,774,762.19a42.51,42.51,0,0,1,75.44,39.22Z" transform="translate(0 -218.54)"/></g><g class="cls-10"><path class="cls-3" d="M423.29,1621.2,347.85,1582,774,762.19a42.51,42.51,0,0,1,75.44,39.22Z" transform="translate(0 -218.54)"/></g><g class="cls-10"><path class="cls-1" d="M893.77,767.66,776.18,706.54l26.48-37.34,106.45,55.34ZM853,720.9a8.5,8.5,0,1,0-11.47,3.62A8.5,8.5,0,0,0,853,720.9Z" transform="translate(0 -218.54)"/></g><g class="cls-10"><path class="cls-3" d="M853,720.9a8.5,8.5,0,1,1-3.62-11.47A8.5,8.5,0,0,1,853,720.9Zm56.14,3.63L802.67,669.2m91.1,98.46L776.18,706.54" transform="translate(0 -218.54)"/></g><g class="cls-10"><path class="cls-1" d="M1049,331.61ZM634.12,1623.88l-34.71-12.35,9.5-26.7,175.24-509.21,264.83-744c20.62,8.36,48.3-6.91,63.13-35.43l.53.28L829.54,1091.77,643.63,1597.18Z" transform="translate(0 -218.54)"/></g><g class="cls-10"><path class="cls-3" d="M1049,331.61ZM634.12,1623.88l-34.71-12.35,9.5-26.7,175.24-509.21,264.83-744c20.62,8.36,48.3-6.91,63.13-35.43l.53.28L829.54,1091.77,643.63,1597.18Z" transform="translate(0 -218.54)"/></g><g class="cls-10"><rect class="cls-1" x="507.68" y="1681.98" width="97.78" height="17.01" transform="translate(-1200.06 1186.08) rotate(-62.53)"/></g><g class="cls-10"><rect class="cls-3" x="507.68" y="1681.98" width="97.78" height="17.01" transform="translate(-1200.06 1186.08) rotate(-62.53)"/></g><g class="cls-10"><line class="cls-9" x1="616.77" y1="1399.16" x2="1074.62" y2="112.87"/></g><g class="cls-10"><path class="cls-9" d="M222.11,1516.62l744.37,386.94M1074.62,331.42l546.87,284.27" transform="translate(0 -218.54)"/></g><g class="cls-10"><rect class="cls-1" x="165.68" y="1504.19" width="97.78" height="17.01" transform="translate(-1226.59 786.84) rotate(-62.53)"/></g><g class="cls-10"><rect class="cls-3" x="165.68" y="1504.19" width="97.78" height="17.01" transform="translate(-1226.59 786.84) rotate(-62.53)"/></g><g class="cls-10"><path class="cls-1" d="M1043.92,329,587.1,973.18,271,1409.16l-16.39,23.12L224.52,1411l16.39-23.12L547.79,945.31l488.34-688.62.53.28C1021.83,285.49,1025.23,316.91,1043.92,329Z" transform="translate(0 -218.54)"/></g><g class="cls-10"><path class="cls-3" d="M1043.92,329,587.1,973.18,271,1409.16l-16.39,23.12L224.52,1411l16.39-23.12L547.79,945.31l488.34-688.62.53.28C1021.83,285.49,1025.23,316.91,1043.92,329Z" transform="translate(0 -218.54)"/></g><g class="cls-10"><line class="cls-9" x1="239.55" y1="1203.08" x2="1029.36" y2="89.34"/></g><g class="cls-13"><path class="cls-11" d="M829.16,2261.1l.81-4.46,139.63,25.46-.81,4.46Zm-7.5,9.58.81-4.46,150.76,27.48-.81,4.46Zm-7.51,9.58.81-4.46,161.91,29.52-.81,4.46ZM801,2288.82l.81-4.46,184.26,33.59-.81,4.46Zm-13.13,8.55.81-4.46,206.66,37.68-.81,4.46Zm-13.15,8.55.81-4.46,229.08,41.76-.81,4.46Zm-13.16,8.55.81-4.46L1014,2355.87l-.81,4.46ZM748.45,2323l.81-4.46,274,50-.81,4.46Zm-13.17,8.55.81-4.46,296.48,54.05-.81,4.46Zm-13.18,8.55.81-4.46,319,58.15-.81,4.46Zm-18.8,7.52.81-4.46,352.71,64.3-.81,4.46Z" transform="translate(0 -218.54)"/></g><g class="cls-13"><path class="cls-14" d="M829.16,2261.1l.81-4.46,139.63,25.46-.81,4.46Zm-7.5,9.58.81-4.46,150.76,27.48-.81,4.46Zm-7.51,9.58.81-4.46,161.91,29.52-.81,4.46ZM801,2288.82l.81-4.46,184.26,33.59-.81,4.46Zm-13.13,8.55.81-4.46,206.66,37.68-.81,4.46Zm-13.15,8.55.81-4.46,229.08,41.76-.81,4.46Zm-13.16,8.55.81-4.46L1014,2355.87l-.81,4.46ZM748.45,2323l.81-4.46,274,50-.81,4.46Zm-13.17,8.55.81-4.46,296.48,54.05-.81,4.46Zm-13.18,8.55.81-4.46,319,58.15-.81,4.46Zm-18.8,7.52.81-4.46,352.71,64.3-.81,4.46Z" transform="translate(0 -218.54)"/></g><g class="cls-13"><rect class="cls-12" x="842.2" y="2373.22" width="4.96" height="396.79" transform="translate(-1836.74 2722.81) rotate(-79.67)"/></g><g class="cls-13"><rect class="cls-14" x="842.2" y="2373.22" width="4.96" height="396.79" transform="translate(-1836.74 2722.81) rotate(-79.67)"/></g><g class="cls-13"><path d="M862.78,2472.35,878,2388.7l909,165.72a42.51,42.51,0,1,1-15.25,83.65Z" transform="translate(0 -218.54)"/></g><g class="cls-13"><path class="cls-14" d="M862.78,2472.35,878,2388.7l909,165.72a42.51,42.51,0,1,1-15.25,83.65Z" transform="translate(0 -218.54)"/></g><g class="cls-13"><rect class="cls-1" x="1917.2" y="2582.25" width="192.72" height="113.37" transform="translate(-943.74 3927.96) rotate(-79.67)"/></g><g class="cls-13"><rect class="cls-14" x="1917.2" y="2582.25" width="192.72" height="113.37" transform="translate(-943.74 3927.96) rotate(-79.67)"/></g><g class="cls-13"><rect class="cls-1" x="896.47" y="2192.04" width="17" height="97.78" transform="translate(-1461.93 2510.74) rotate(-79.67)"/></g><g class="cls-13"><rect class="cls-14" x="896.47" y="2192.04" width="17" height="97.78" transform="translate(-1461.93 2510.74) rotate(-79.67)"/></g><g class="cls-13"><polygon class="cls-1" points="1812.27 2434.06 1830.05 2336.57 1878.81 2353.55 1863.89 2435.38 1812.27 2434.06"/></g><g class="cls-13"><path class="cls-14" d="M1878.81,2572.09l-14.92,81.83M1830,2555.11l-17.77,97.49" transform="translate(0 -218.54)"/></g><g class="cls-13"><polygon class="cls-1" points="1962.8 2382.78 1521.47 2229.14 1013.41 2050.62 986.64 2041.3 1002.49 1995.8 1029.25 2005.12 1538.33 2180.7 1972.11 2331.71 1972.14 2331.76 1972.24 2331.91 1972.42 2332.15 1972.65 2332.49 1972.96 2332.93 1973.33 2333.46 1973.75 2334.09 1974.23 2334.8 1974.77 2335.6 1975.36 2336.48 1975.98 2337.44 1976.65 2338.48 1977.35 2339.59 1978.07 2340.76 1978.81 2342 1979.56 2343.29 1980.31 2344.63 1981.05 2346.02 1981.77 2347.44 1982.46 2348.89 1983.12 2350.37 1983.71 2351.86 1984.25 2353.36 1984.71 2354.86 1985.08 2356.36 1985.36 2357.83 1985.53 2359.29 1985.58 2360.72 1985.52 2362.12 1985.34 2363.47 1985.03 2364.79 1984.61 2366.06 1984.07 2367.28 1983.42 2368.45 1982.67 2369.57 1981.83 2370.64 1980.91 2371.67 1979.93 2372.64 1978.89 2373.56 1977.81 2374.43 1976.7 2375.26 1975.58 2376.04 1974.45 2376.78 1973.33 2377.47 1972.23 2378.11 1971.15 2378.72 1970.11 2379.28 1969.12 2379.8 1968.17 2380.28 1967.29 2380.71 1966.47 2381.11 1965.73 2381.46 1965.06 2381.77 1964.47 2382.04 1963.96 2382.27 1963.55 2382.45 1963.22 2382.6 1962.98 2382.7 1962.84 2382.76 1962.8 2382.78"/></g><g class="cls-13"><polygon class="cls-14" points="1962.8 2382.78 1521.47 2229.14 1013.41 2050.62 986.64 2041.3 1002.49 1995.8 1029.25 2005.12 1538.33 2180.7 1972.11 2331.71 1972.14 2331.76 1972.24 2331.91 1972.42 2332.15 1972.65 2332.49 1972.96 2332.93 1973.33 2333.46 1973.75 2334.09 1974.23 2334.8 1974.77 2335.6 1975.36 2336.48 1975.98 2337.44 1976.65 2338.48 1977.35 2339.59 1978.07 2340.76 1978.81 2342 1979.56 2343.29 1980.31 2344.63 1981.05 2346.02 1981.77 2347.44 1982.46 2348.89 1983.12 2350.37 1983.71 2351.86 1984.25 2353.36 1984.71 2354.86 1985.08 2356.36 1985.36 2357.83 1985.53 2359.29 1985.58 2360.72 1985.52 2362.12 1985.34 2363.47 1985.03 2364.79 1984.61 2366.06 1984.07 2367.28 1983.42 2368.45 1982.67 2369.57 1981.83 2370.64 1980.91 2371.67 1979.93 2372.64 1978.89 2373.56 1977.81 2374.43 1976.7 2375.26 1975.58 2376.04 1974.45 2376.78 1973.33 2377.47 1972.23 2378.11 1971.15 2378.72 1970.11 2379.28 1969.12 2379.8 1968.17 2380.28 1967.29 2380.71 1966.47 2381.11 1965.73 2381.46 1965.06 2381.77 1964.47 2382.04 1963.96 2382.27 1963.55 2382.45 1963.22 2382.6 1962.98 2382.7 1962.84 2382.76 1962.8 2382.78"/></g><g class="cls-13"><line class="cls-15" x1="994.56" y1="2018.55" x2="1967.45" y2="2357.25"/></g><g class="cls-13"><path class="cls-15" d="M837.36,2611.76l129.12-708.2m1029.79,830.17,115.19-631.78" transform="translate(0 -218.54)"/></g><g class="cls-13"><path class="cls-11" d="M1976.91,2523.93l-111.17-54.55L1761,2450.29l1.53-8.36,75.16,13.7-32.7-16-278.83-50.83,7.12-39,326.23,59.47L2100.33,2479l-4.32,23.7,221.92,40.46-1.52,8.36-221.92-40.46-6,33.18Zm190.67,344.74-240.79-69.83,11.9-65.24,111.53,20.33,171.89,84.34,278.83,50.83-7.12,39Z" transform="translate(0 -218.54)"/></g><g class="cls-13"><path class="cls-14" d="M1976.91,2523.93l-111.17-54.55L1761,2450.29l1.53-8.36,75.16,13.7-32.7-16-278.83-50.83,7.12-39,326.23,59.47L2100.33,2479l-4.32,23.7,221.92,40.46-1.52,8.36-221.92-40.46-6,33.18Zm190.67,344.74-240.79-69.83,11.9-65.24,111.53,20.33,171.89,84.34,278.83,50.83-7.12,39Z" transform="translate(0 -218.54)"/></g><g class="cls-13"><polygon class="cls-4" points="773.5 2094.35 776.86 2075.95 891.4 2096.83 2041.16 2268.99 2318.85 2319.61 2315.49 2338.02 2037.81 2287.39 888.04 2115.23 773.5 2094.35"/></g><g class="cls-13"><polygon class="cls-14" points="773.5 2094.35 776.86 2075.95 891.4 2096.83 2041.16 2268.99 2318.85 2319.61 2315.49 2338.02 2037.81 2287.39 888.04 2115.23 773.5 2094.35"/></g><g class="cls-13"><rect class="cls-1" x="827.33" y="2571.23" width="17" height="97.78" transform="translate(-1891.71 2753.91) rotate(-79.67)"/></g><g class="cls-13"><rect class="cls-14" x="827.33" y="2571.23" width="17" height="97.78" transform="translate(-1891.71 2753.91) rotate(-79.67)"/></g><g class="cls-13"><polygon class="cls-1" points="917.69 2460.86 918.93 2412.7 947.26 2413.43 1485.63 2425.68 1952.79 2437.66 1952.83 2437.7 1952.94 2437.8 1953.12 2437.98 1953.38 2438.24 1953.7 2438.56 1954.09 2438.95 1954.55 2439.41 1955.07 2439.94 1955.64 2440.53 1956.27 2441.19 1956.94 2441.91 1957.65 2442.68 1958.4 2443.52 1959.17 2444.41 1959.97 2445.36 1960.77 2446.35 1961.58 2447.4 1962.37 2448.48 1963.15 2449.61 1963.89 2450.77 1964.59 2451.97 1965.24 2453.2 1965.82 2454.46 1966.32 2455.74 1966.72 2457.03 1967.03 2458.35 1967.22 2459.67 1967.3 2461.01 1967.25 2462.35 1967.07 2463.68 1966.76 2465.02 1966.33 2466.35 1965.77 2467.66 1965.09 2468.97 1964.31 2470.25 1963.44 2471.52 1962.48 2472.76 1961.45 2473.98 1960.37 2475.16 1959.23 2476.31 1958.08 2477.43 1956.9 2478.5 1955.71 2479.54 1954.54 2480.53 1953.38 2481.47 1952.25 2482.37 1951.16 2483.22 1950.12 2484.01 1949.13 2484.74 1948.2 2485.42 1947.34 2486.04 1946.56 2486.6 1945.85 2487.09 1945.23 2487.53 1944.7 2487.89 1944.27 2488.2 1943.92 2488.43 1943.68 2488.6 1943.53 2488.7 1943.48 2488.74 1484.32 2476.96 946.03 2461.59 917.69 2460.86"/></g><g class="cls-13"><polygon class="cls-14" points="917.69 2460.86 918.93 2412.7 947.26 2413.43 1485.63 2425.68 1952.79 2437.66 1952.83 2437.7 1952.94 2437.8 1953.12 2437.98 1953.38 2438.24 1953.7 2438.56 1954.09 2438.95 1954.55 2439.41 1955.07 2439.94 1955.64 2440.53 1956.27 2441.19 1956.94 2441.91 1957.65 2442.68 1958.4 2443.52 1959.17 2444.41 1959.97 2445.36 1960.77 2446.35 1961.58 2447.4 1962.37 2448.48 1963.15 2449.61 1963.89 2450.77 1964.59 2451.97 1965.24 2453.2 1965.82 2454.46 1966.32 2455.74 1966.72 2457.03 1967.03 2458.35 1967.22 2459.67 1967.3 2461.01 1967.25 2462.35 1967.07 2463.68 1966.76 2465.02 1966.33 2466.35 1965.77 2467.66 1965.09 2468.97 1964.31 2470.25 1963.44 2471.52 1962.48 2472.76 1961.45 2473.98 1960.37 2475.16 1959.23 2476.31 1958.08 2477.43 1956.9 2478.5 1955.71 2479.54 1954.54 2480.53 1953.38 2481.47 1952.25 2482.37 1951.16 2483.22 1950.12 2484.01 1949.13 2484.74 1948.2 2485.42 1947.34 2486.04 1946.56 2486.6 1945.85 2487.09 1945.23 2487.53 1944.7 2487.89 1944.27 2488.2 1943.92 2488.43 1943.68 2488.6 1943.53 2488.7 1943.48 2488.74 1484.32 2476.96 946.03 2461.59 917.69 2460.86"/></g><g class="cls-13"><line class="cls-15" x1="918.31" y1="2436.78" x2="1948.13" y2="2463.2"/></g><g class="cls-2"><line class="cls-16" x1="3445.51" y1="882.55" x2="3338.17" y2="542.11"/></g><g class="cls-2"><line class="cls-16" x1="3338.17" y1="542.11" x2="3601.59" y2="783.02"/></g><g class="cls-2"><path class="cls-17" d="M3445.51,1101.1a357,357,0,0,0,156.08-99.54" transform="translate(0 -218.54)"/></g><g class="cls-18"><path d="M3712.59,1074.05a6.72,6.72,0,0,0,4.32-1.76,6,6,0,1,0-8.53,0A6.48,6.48,0,0,0,3712.59,1074.05Zm0,4.29a11.18,11.18,0,0,1-7.2-3.05,10.31,10.31,0,1,1,14.6.05A11.58,11.58,0,0,1,3712.55,1078.34Zm-49.28,35.29v-5.16h10.32v-40.73l-10.32,2.58V1065l17.23-4.29v47.74h10.32v5.16Zm-26.09,0V1105h8.61v8.61Zm-29.16-3.87c10.92,0,10.92-22.18,10.92-22.18,0-21.69-10.78-21.69-10.78-21.69-10.74,0-10.74,21.9-10.74,21.9C3597.43,1109.76,3608,1109.76,3608,1109.76Zm-.07,5.16c-8,0-12.92-7.52-12.92-7.52-4.93-7.52-4.93-19.62-4.93-19.62,0-12.21,5-19.63,5-19.63a16.88,16.88,0,0,1,13.1-7.43c8.13,0,13.1,7.43,13.1,7.43,5,7.43,5,19.53,5,19.53,0,12.41-5,19.83-5,19.83A17.16,17.16,0,0,1,3608,1114.92Zm-59.78-1.67v-6.42c7.39,2.93,11.65,2.93,11.65,2.93a12.51,12.51,0,0,0,8-2.88c3.09-2.88,3.09-7.45,3.09-7.45,0-10.88-15.24-10.88-15.24-10.88H3553v-4.64l2.41,0c14.3,0,14.3-10.08,14.3-10.08,0-7.92-9.42-7.92-9.42-7.92-5.16,0-11.37,2.89-11.37,2.89v-6a41.6,41.6,0,0,1,11.86-2.06c15.83,0,15.83,12,15.83,12,0,9.1-10.78,13-10.78,13,12.49,2.89,12.49,13.67,12.49,13.67a15.9,15.9,0,0,1-4.81,11.44c-4.81,4.15-13.22,4.15-13.22,4.15A69.1,69.1,0,0,1,3548.19,1113.25Z" transform="translate(0 -218.54)"/></g><g class="cls-2"><line class="cls-16" x1="2391.68" y1="1577.01" x2="2111.46" y2="1883.4"/></g><g class="cls-2"><line class="cls-16" x1="2111.46" y1="1883.4" x2="1990.06" y2="1486.34"/></g><g class="cls-2"><path class="cls-17" d="M2391.68,1795.55a415.23,415.23,0,0,0-401.62-90.67" transform="translate(0 -218.54)"/></g><g class="cls-19"><path d="M2287.14,1464.45a6.72,6.72,0,0,0,4.32-1.76,6,6,0,1,0-8.53,0A6.48,6.48,0,0,0,2287.14,1464.45Zm0,4.29a11.18,11.18,0,0,1-7.2-3.05,10.31,10.31,0,1,1,14.6.05A11.58,11.58,0,0,1,2287.11,1468.74Zm-49.63,15.07h16.95v-22.95ZM2254,1504v-14.61h-23.23v-5.2l23.23-31.8h6.45v31.39h6.91v5.61h-6.91V1504Zm-42.23,0v-8.61h8.61V1504Zm-39.3-35.92a16.34,16.34,0,0,0,2.67,9.45c2.67,3.45,7.31,3.45,7.31,3.45a11.77,11.77,0,0,0,7.45-3,10.84,10.84,0,0,0,3.09-7.15,19,19,0,0,0-3-10.62,10.5,10.5,0,0,0-7.83-4,9.7,9.7,0,0,0-7.1,3.19C2172.44,1462.64,2172.44,1468.12,2172.44,1468.12Zm-4.18,35.61v-5.82a37.76,37.76,0,0,0,11.16,2.27c6.42,0,10-5.46,10-5.46,3.61-5.46,3.61-15.19,3.61-15.19a16.58,16.58,0,0,1-11.89,6.45c-6.52,0-11.06-4.8-11.06-4.8-4.53-4.8-4.53-11.7-4.53-11.7a20.78,20.78,0,0,1,4.83-13.13c4.83-5.21,12.15-5.21,12.15-5.21,8.4,0,13.25,6.75,13.25,6.75,4.85,6.75,4.85,18.47,4.85,18.47,0,13.32-5.91,21.15-5.91,21.15-5.91,7.83-16,7.83-16,7.83A56.73,56.73,0,0,1,2168.26,1503.72Zm-44.08.52v-6.14a29.16,29.16,0,0,0,9.76,2.06,11.72,11.72,0,0,0,8-3c2.91-3,2.91-8.26,2.91-8.26,0-11.61-16-11.61-16-11.61a36.35,36.35,0,0,0-3.8.24v-25.11h26.12v6h-20.09V1472c9.94,0,15.52,4.57,15.52,4.57,5.58,4.57,5.58,12.66,5.58,12.66a16.25,16.25,0,0,1-5.07,11.8c-5.07,4.27-14.07,4.27-14.07,4.27A50.25,50.25,0,0,1,2124.18,1504.24Z" transform="translate(0 -218.54)"/></g><g class="cls-2"><line class="cls-16" x1="1686.38" y1="347.67" x2="1686.38" y2="251.31"/></g><g class="cls-2"><line class="cls-16" x1="3204.88" y1="347.67" x2="3204.88" y2="251.31"/></g><g class="cls-2"><line class="cls-17" x1="1686.38" y1="251.31" x2="3204.88" y2="251.31"/></g><g class="cls-2"><polyline points="1686.38 251.31 1720.39 239.97 1720.39 262.64"/></g><g class="cls-2"><polyline points="3204.88 251.31 3170.87 239.97 3170.87 262.64"/></g><g class="cls-2"><path d="M2516.48,457.94V420.07h6.87v7.11a16.37,16.37,0,0,1,12.9-8c7.6,0,10.36,8,10.36,8a16,16,0,0,1,12.69-8,11.11,11.11,0,0,1,7.78,2.95c2.76,2.95,2.76,8.25,2.76,8.25v27.55h-6.91V431.48c0-6.49-5.13-6.49-5.13-6.49-5.34,0-11.19,7.57-11.19,7.57v25.39h-6.91V431.48c0-6.52-5.23-6.52-5.23-6.52-5.2,0-11.12,7.6-11.12,7.6v25.39Zm-67,0V420.07h6.87v7.11a16.37,16.37,0,0,1,12.9-8c7.6,0,10.36,8,10.36,8a16,16,0,0,1,12.69-8,11.11,11.11,0,0,1,7.78,2.95c2.76,2.95,2.76,8.25,2.76,8.25v27.55H2496V431.48c0-6.49-5.13-6.49-5.13-6.49-5.34,0-11.19,7.57-11.19,7.57v25.39h-6.91V431.48c0-6.52-5.23-6.52-5.23-6.52-5.2,0-11.12,7.6-11.12,7.6v25.39Zm-18.38-15.62a15.72,15.72,0,0,0-2.63-9.21c-2.63-3.35-7.31-3.35-7.31-3.35a12.06,12.06,0,0,0-7.5,2.93,10.51,10.51,0,0,0-3.14,7,18.28,18.28,0,0,0,3,10.41,10.72,10.72,0,0,0,7.9,3.92,9.76,9.76,0,0,0,7.06-3.19C2431.14,447.69,2431.14,442.32,2431.14,442.32Zm-20.85-11.12a16.86,16.86,0,0,1,12.38-6.38,16.48,16.48,0,0,1,11.07,4.48c4.31,4.48,4.31,11.49,4.31,11.49a20.86,20.86,0,0,1-4.83,13.25c-4.83,5.2-12.26,5.2-12.26,5.2-8.54,0-13.36-6.87-13.36-6.87-4.81-6.87-4.81-19.08-4.81-19.08,0-13.43,5.53-20.85,5.53-20.85,5.53-7.43,15.57-7.43,15.57-7.43,4.6,0,11.51,2,11.51,2v6c-7.29-2.79-11.93-2.79-11.93-2.79C2410.29,410.17,2410.29,431.2,2410.29,431.2Zm-49.66,26.36v-6.42c7.39,2.93,11.65,2.93,11.65,2.93a12.52,12.52,0,0,0,8-2.88c3.09-2.88,3.09-7.45,3.09-7.45,0-10.88-15.24-10.88-15.24-10.88h-2.72v-4.64l2.41,0c14.3,0,14.3-10.08,14.3-10.08,0-7.92-9.42-7.92-9.42-7.92-5.16,0-11.37,2.89-11.37,2.89v-6a41.6,41.6,0,0,1,11.86-2.06c15.83,0,15.83,12,15.83,12,0,9.1-10.78,13-10.78,13,12.49,2.89,12.49,13.67,12.49,13.67a15.9,15.9,0,0,1-4.81,11.44c-4.81,4.15-13.22,4.15-13.22,4.15A69.09,69.09,0,0,1,2360.63,457.56Zm-43.21.59V452a29.16,29.16,0,0,0,9.76,2.06,11.72,11.72,0,0,0,8-3c2.91-3,2.91-8.27,2.91-8.27,0-11.61-16-11.61-16-11.61a36.36,36.36,0,0,0-3.8.24V406.33h26.12v6h-20.09v13.6c9.94,0,15.52,4.57,15.52,4.57,5.58,4.57,5.58,12.66,5.58,12.66a16.25,16.25,0,0,1-5.07,11.8c-5.07,4.27-14.07,4.27-14.07,4.27A50.25,50.25,0,0,1,2317.42,458.15Z" transform="translate(0 -218.54)"/></g><g class="cls-2"><line class="cls-16" x1="1713.94" y1="437.79" x2="1713.94" y2="485.97"/></g><g class="cls-2"><line class="cls-16" x1="3234.55" y1="437.79" x2="3234.55" y2="485.97"/></g><g class="cls-2"><line class="cls-17" x1="1713.94" y1="485.97" x2="3234.55" y2="485.97"/></g><g class="cls-2"><polyline points="1713.94 485.97 1747.95 474.64 1747.95 497.31"/></g><g class="cls-2"><polyline points="3234.55 485.97 3200.53 474.64 3200.53 497.31"/></g><g class="cls-2"><path d="M2545.09,770V732.11H2552v7.11a16.37,16.37,0,0,1,12.9-8c7.6,0,10.36,8,10.36,8a16,16,0,0,1,12.69-8,11.11,11.11,0,0,1,7.78,2.95c2.76,2.95,2.76,8.25,2.76,8.25V770h-6.91V743.52c0-6.49-5.13-6.49-5.13-6.49-5.34,0-11.19,7.57-11.19,7.57V770h-6.91V743.52c0-6.52-5.23-6.52-5.23-6.52-5.2,0-11.12,7.6-11.12,7.6V770Zm-67,0V732.11H2485v7.11a16.37,16.37,0,0,1,12.9-8c7.6,0,10.36,8,10.36,8a16,16,0,0,1,12.69-8,11.11,11.11,0,0,1,7.78,2.95c2.76,2.95,2.76,8.25,2.76,8.25V770h-6.91V743.52c0-6.49-5.13-6.49-5.13-6.49-5.34,0-11.19,7.57-11.19,7.57V770h-6.91V743.52c0-6.52-5.23-6.52-5.23-6.52-5.2,0-11.12,7.6-11.12,7.6V770Zm-40.77,0a51.06,51.06,0,0,1,2.88-10.43,124.17,124.17,0,0,1,6.61-12.07l14.09-22.67h-26.57v-6.45h33.13v6.45c-19.84,29.26-22.22,45.16-22.22,45.16Zm-48.13-.38v-6.42c7.39,2.93,11.65,2.93,11.65,2.93a12.52,12.52,0,0,0,8-2.88c3.09-2.88,3.09-7.45,3.09-7.45,0-10.88-15.24-10.88-15.24-10.88H2394v-4.64l2.41,0c14.3,0,14.3-10.08,14.3-10.08,0-7.92-9.42-7.92-9.42-7.92-5.16,0-11.37,2.89-11.37,2.89v-6a41.61,41.61,0,0,1,11.86-2.06c15.83,0,15.83,12,15.83,12,0,9.1-10.78,13-10.78,13,12.49,2.89,12.49,13.67,12.49,13.67a15.9,15.9,0,0,1-4.81,11.44c-4.81,4.15-13.22,4.15-13.22,4.15A69.1,69.1,0,0,1,2389.24,769.6Zm-43.21.59v-6.14a29.16,29.16,0,0,0,9.76,2.06,11.72,11.72,0,0,0,8-3c2.91-3,2.91-8.26,2.91-8.26,0-11.61-16-11.61-16-11.61a36.4,36.4,0,0,0-3.8.24V718.37H2373v6h-20.09V738c9.94,0,15.52,4.57,15.52,4.57,5.58,4.57,5.58,12.66,5.58,12.66A16.25,16.25,0,0,1,2369,767c-5.07,4.27-14.07,4.27-14.07,4.27A50.25,50.25,0,0,1,2346,770.19Z" transform="translate(0 -218.54)"/></g><g class="cls-20"><line class="cls-21" x1="2124.94" y1="1788.87" x2="2062.2" y2="1731.49"/></g><g class="cls-20"><line class="cls-21" x1="3266.86" y1="540.29" x2="3204.12" y2="482.91"/></g><g class="cls-22"><line class="cls-23" x1="2062.2" y1="1731.49" x2="3204.12" y2="482.91"/></g><g class="cls-22"><polyline points="2062.2 1731.49 2076.78 1698.74 2093.52 1714.05"/></g><g class="cls-22"><polyline points="3204.12 482.91 3172.8 500.35 3189.53 515.65"/></g><g class="cls-24"><path d="M2899.81,1016.55,2871.86,991l4.64-5.07,5.25,4.8a16.37,16.37,0,0,1,2.84-14.89c5.13-5.61,12.86-2.28,12.86-2.28a16,16,0,0,1,2.67-14.76,11.11,11.11,0,0,1,7.42-3.75c4,0,7.95,3.53,7.95,3.53l20.33,18.59-4.66,5.1-19.53-17.86c-4.79-4.38-8.25-.59-8.25-.59-3.6,3.94-2,13.37-2,13.37l18.74,17.13-4.66,5.1L2896,981.54c-4.81-4.4-8.34-.54-8.34-.54-3.51,3.83-1.9,13.34-1.9,13.34l18.74,17.13ZM2854.62,1066l-27.95-25.56,4.64-5.07,5.25,4.8a16.37,16.37,0,0,1,2.84-14.89c5.13-5.61,12.86-2.28,12.86-2.28a16,16,0,0,1,2.67-14.76,11.11,11.11,0,0,1,7.42-3.75c4,0,7.95,3.53,7.95,3.53l20.33,18.59-4.66,5.1-19.53-17.86c-4.79-4.38-8.25-.59-8.25-.59-3.6,3.94-2,13.37-2,13.37l18.74,17.13-4.66,5.1L2850.76,1031c-4.81-4.4-8.34-.54-8.34-.54-3.51,3.83-1.9,13.34-1.9,13.34l18.74,17.13ZM2827.11,1096a51.07,51.07,0,0,1-5.75-9.16,124.19,124.19,0,0,1-4.44-13l-7.22-25.69-17.93,19.61-4.76-4.35,22.36-24.45,4.76,4.35c8.2,34.39,18.33,46.87,18.33,46.87Zm-55.57,7.54a16.34,16.34,0,0,0,8.77,4.41c4.35.36,7.48-3.06,7.48-3.06a11.77,11.77,0,0,0,2.84-7.49,10.84,10.84,0,0,0-3.19-7.1,19,19,0,0,0-9.85-5,10.5,10.5,0,0,0-8.26,3.06,9.7,9.7,0,0,0-2.43,7.39C2767.49,1099.88,2771.53,1103.58,2771.53,1103.58ZM2795,1130.7l-4.3-3.93a37.75,37.75,0,0,0,9.2-6.71c4.33-4.74,2.74-11.08,2.74-11.08-1.59-6.35-8.77-12.91-8.77-12.91a16.58,16.58,0,0,1-3.26,13.13c-4.4,4.81-11,4.92-11,4.92-6.6.11-11.69-4.55-11.69-4.55a20.79,20.79,0,0,1-6.43-12.43c-.59-7.08,4.35-12.49,4.35-12.49,5.67-6.2,13.92-5.22,13.92-5.22,8.25,1,16.9,8.88,16.9,8.88,9.83,9,11.62,18.64,11.62,18.64,1.79,9.65-5,17.08-5,17.08A56.73,56.73,0,0,1,2795,1130.7Zm-29.36,32.88-4.53-4.14a29.15,29.15,0,0,0,8.11-5.82,11.72,11.72,0,0,0,3.19-7.93c-.25-4.17-4.13-7.73-4.13-7.73-8.57-7.84-19.37,4-19.37,4a36.36,36.36,0,0,0-2.39,3L2728,1128l17.63-19.27,4.43,4-13.56,14.82,10,9.18c6.71-7.33,13.84-8.37,13.84-8.37,7.14-1,13.11,4.43,13.11,4.43a16.25,16.25,0,0,1,5.29,11.71c-.27,6.63-6.34,13.27-6.34,13.27A50.25,50.25,0,0,1,2765.62,1163.58Z" transform="translate(0 -218.54)"/></g><g class="cls-25"><line class="cls-21" x1="2111.46" y1="1883.4" x2="1910.68" y2="1699.79"/></g><g class="cls-25"><line class="cls-21" x1="3266.86" y1="540.29" x2="3105.82" y2="393.01"/></g><g class="cls-26"><line class="cls-23" x1="1910.68" y1="1699.79" x2="3105.82" y2="393.01"/></g><g class="cls-26"><polyline points="1910.68 1699.79 1925.27 1667.04 1942 1682.34"/></g><g class="cls-26"><polyline points="3105.82 393.01 3074.5 410.46 3091.23 425.76"/></g><g class="cls-27"><path d="M2817,909.73,2789,884.17l4.64-5.07,5.25,4.8a16.37,16.37,0,0,1,2.84-14.89c5.13-5.61,12.86-2.28,12.86-2.28a16,16,0,0,1,2.67-14.76,11.11,11.11,0,0,1,7.42-3.75c4,0,7.95,3.53,7.95,3.53L2853,870.36l-4.66,5.1-19.53-17.86c-4.79-4.38-8.25-.59-8.25-.59-3.6,3.94-2,13.37-2,13.37l18.74,17.13-4.66,5.1-19.53-17.86c-4.81-4.4-8.34-.54-8.34-.54-3.51,3.83-1.9,13.34-1.9,13.34l18.74,17.13Zm-45.19,49.41-27.95-25.56,4.64-5.07,5.25,4.8a16.37,16.37,0,0,1,2.84-14.89c5.13-5.61,12.86-2.28,12.86-2.28a16,16,0,0,1,2.67-14.76,11.11,11.11,0,0,1,7.42-3.75c4,0,7.95,3.53,7.95,3.53l20.33,18.59-4.66,5.1L2783.61,907c-4.79-4.38-8.25-.59-8.25-.59-3.6,3.94-2,13.37-2,13.37l18.74,17.13-4.66,5.1-19.53-17.86c-4.81-4.4-8.34-.54-8.34-.54-3.51,3.83-1.9,13.34-1.9,13.34l18.74,17.13ZM2743,990.89l-4.53-4.14a29.16,29.16,0,0,0,8.11-5.82,11.72,11.72,0,0,0,3.19-7.93c-.25-4.17-4.13-7.73-4.13-7.73-8.57-7.84-19.37,4-19.37,4a36.34,36.34,0,0,0-2.39,3l-18.53-16.95L2723,936l4.43,4-13.56,14.82,10,9.18c6.71-7.33,13.84-8.37,13.84-8.37,7.14-1,13.11,4.43,13.11,4.43a16.25,16.25,0,0,1,5.29,11.71c-.27,6.63-6.34,13.27-6.34,13.27A50.25,50.25,0,0,1,2743,990.89Zm-32.14,34.83-4.45-4.07c-3.15-6.94-3.08-19.26-3.08-19.26l.06-5.29c.06-10.25-4.93-14.81-4.93-14.81a9.87,9.87,0,0,0-6.77-2.67c-3.58.25-6.64,3.59-6.64,3.59-3.62,4-5.48,12.14-5.48,12.14l-4.48-4.1a35.61,35.61,0,0,1,6.81-12.25,18.58,18.58,0,0,1,10.74-6c5.85-.61,10.61,3.75,10.61,3.75a17.28,17.28,0,0,1,4.58,7.19c1.16,4.06.87,12,.87,12l-.12,3.49c-.41,10.83,3.43,16.09,3.43,16.09L2727.19,999l4.45,4.07Zm-23.3,2.32a15.73,15.73,0,0,0-8.57-4.27c-4.25-.32-7.4,3.13-7.4,3.13a12.06,12.06,0,0,0-2.9,7.51,10.51,10.51,0,0,0,3.08,7.07,18.29,18.29,0,0,0,9.69,4.82,10.72,10.72,0,0,0,8.23-3.18,9.76,9.76,0,0,0,2.41-7.36C2691.57,1031.66,2687.61,1028,2687.61,1028Zm-22.28,7.88a16.86,16.86,0,0,1,3.65-13.44,16.48,16.48,0,0,1,10.78-5.15c6.21-.15,11.39,4.58,11.39,4.58a20.86,20.86,0,0,1,6.52,12.51c.57,7.07-4.44,12.55-4.44,12.55-5.77,6.3-14.08,5.22-14.08,5.22-8.32-1.09-17.33-9.32-17.33-9.32-9.91-9.06-11.66-18.15-11.66-18.15-1.75-9.09,5-16.5,5-16.5,3.11-3.4,9.21-7.17,9.21-7.17l4.43,4c-7,3.5-10.11,6.92-10.11,6.92C2649.8,1021.73,2665.32,1035.92,2665.32,1035.92Z" transform="translate(0 -218.54)"/></g><g class="cls-2"><line class="cls-16" x1="1536.02" y1="117.6" x2="1621.49" y2="397.14"/></g><g class="cls-2"><line class="cls-16" x1="1621.49" y1="397.14" x2="1362.11" y2="262.31"/></g><g class="cls-2"><path class="cls-17" d="M1536,336.14a292.33,292.33,0,0,0-173.91,144.72" transform="translate(0 -218.54)"/></g><g class="cls-28"><path d="M1465.59,321.43a6.72,6.72,0,0,0,4.32-1.76,6,6,0,1,0-8.53,0A6.48,6.48,0,0,0,1465.59,321.43Zm0,4.29a11.18,11.18,0,0,1-7.2-3.05,10.31,10.31,0,1,1,14.59.05A11.58,11.58,0,0,1,1465.55,325.72Zm-51.34,35.5v-6.14a29.16,29.16,0,0,0,9.76,2.06,11.72,11.72,0,0,0,8-3c2.91-3,2.91-8.26,2.91-8.26,0-11.61-16-11.61-16-11.61a36.35,36.35,0,0,0-3.8.24V309.4h26.12v6h-20.09V329c9.94,0,15.52,4.57,15.52,4.57,5.58,4.57,5.58,12.66,5.58,12.66a16.25,16.25,0,0,1-5.07,11.8c-5.07,4.27-14.07,4.27-14.07,4.27A50.25,50.25,0,0,1,1414.22,361.22Zm-24-.21V352.4h8.61V361Zm-42.93.21v-6.14a29.16,29.16,0,0,0,9.76,2.06,11.72,11.72,0,0,0,8-3c2.91-3,2.91-8.26,2.91-8.26,0-11.61-16-11.61-16-11.61a36.35,36.35,0,0,0-3.8.24V309.4h26.12v6h-20.09V329c9.94,0,15.52,4.57,15.52,4.57,5.58,4.57,5.58,12.66,5.58,12.66a16.25,16.25,0,0,1-5.07,11.8c-5.07,4.27-14.07,4.27-14.07,4.27A50.25,50.25,0,0,1,1347.26,361.22Zm-42.93-20.44h16.95V317.84Zm16.5,20.23V346.4H1297.6v-5.2l23.23-31.8h6.45v31.39h6.91v5.61h-6.91V361Z" transform="translate(0 -218.54)"/></g><g class="cls-2"><line class="cls-16" x1="1460.2" y1="707.41" x2="1621.49" y2="397.14"/></g><g class="cls-2"><line class="cls-16" x1="1621.49" y1="397.14" x2="1723.73" y2="731.54"/></g><g class="cls-2"><path class="cls-17" d="M1460.19,925.95a349.7,349.7,0,0,0,263.53,24.14" transform="translate(0 -218.54)"/></g><g class="cls-29"><path d="M1633.84,1033.53a6.72,6.72,0,0,0,4.32-1.76,6,6,0,1,0-8.53,0A6.48,6.48,0,0,0,1633.84,1033.53Zm0,4.29a11.18,11.18,0,0,1-7.2-3.05,10.31,10.31,0,1,1,14.59.05A11.58,11.58,0,0,1,1633.81,1037.82Zm-51.34,35.5v-6.14a29.16,29.16,0,0,0,9.76,2.06,11.72,11.72,0,0,0,8-3c2.91-3,2.91-8.26,2.91-8.26,0-11.61-16-11.61-16-11.61a36.35,36.35,0,0,0-3.8.24V1021.5h26.12v6h-20.09v13.6c9.94,0,15.52,4.57,15.52,4.57,5.58,4.57,5.58,12.66,5.58,12.66a16.25,16.25,0,0,1-5.07,11.8c-5.07,4.27-14.07,4.27-14.07,4.27A50.25,50.25,0,0,1,1582.47,1073.32Zm-24-.21v-8.61h8.61v8.61Zm-41.22-20.23h16.95v-22.95Zm16.5,20.23V1058.5h-23.23v-5.2l23.23-31.8h6.45v31.39h6.91v5.61h-6.91v14.61Zm-61.14-20.23h16.95v-22.95Zm16.5,20.23V1058.5h-23.23v-5.2l23.23-31.8h6.45v31.39h6.91v5.61h-6.91v14.61Z" transform="translate(0 -218.54)"/></g><g class="cls-30"><line class="cls-17" x1="997.66" y1="1597.15" x2="1621.49" y2="397.14"/></g><g class="cls-30"><polyline points="997.66 1597.15 1003.28 1561.75 1023.4 1572.21"/></g><g class="cls-30"><polyline points="1621.49 397.14 1595.74 422.09 1615.86 432.55"/></g><g class="cls-31"><path d="M1294.79,1155.19l-33.6-17.47,3.17-6.1,6.31,3.28a16.37,16.37,0,0,1-1.1-15.12c3.51-6.75,11.83-5.52,11.83-5.52a16,16,0,0,1-1.23-14.95,11.11,11.11,0,0,1,6.2-5.54c3.89-1.09,8.59,1.36,8.59,1.36l24.45,12.71-3.18,6.13-23.49-12.21c-5.76-3-8.12,1.56-8.12,1.56-2.46,4.73,1.55,13.42,1.55,13.42l22.53,11.71-3.18,6.13L1282,1122.38c-5.79-3-8.2,1.63-8.2,1.63-2.4,4.61,1.61,13.38,1.61,13.38L1298,1149.1Zm-30.88,59.41-33.6-17.47,3.17-6.1,6.31,3.28a16.37,16.37,0,0,1-1.1-15.12c3.51-6.75,11.83-5.52,11.83-5.52a16,16,0,0,1-1.23-14.95,11.11,11.11,0,0,1,6.2-5.54c3.89-1.09,8.59,1.36,8.59,1.36l24.45,12.71-3.18,6.13-23.49-12.21c-5.76-3-8.12,1.56-8.12,1.56-2.46,4.73,1.55,13.42,1.55,13.42l22.53,11.71-3.18,6.13-23.49-12.21c-5.79-3-8.2,1.63-8.2,1.63-2.4,4.61,1.61,13.38,1.61,13.38l22.53,11.71Zm-18.8,36.17a51.08,51.08,0,0,1-7.93-7.36,124.17,124.17,0,0,1-7.66-11.43l-13.61-23-12.26,23.58-5.72-3,15.28-29.4,5.72,3c16.81,31.1,29.83,40.54,29.83,40.54Zm-20.59,39.61a51.07,51.07,0,0,1-7.92-7.36,124.18,124.18,0,0,1-7.66-11.43l-13.61-23-12.26,23.58-5.72-3,15.28-29.4,5.72,3c16.81,31.1,29.83,40.54,29.83,40.54Zm-38.7,30.59,7.82-15-20.36-10.58Zm25.56-5.31-13-6.74-10.71,20.61-4.61-2.4-17.51-35.28,3-5.72,27.85,14.48,3.18-6.13,5,2.59-3.18,6.13,13,6.74Z" transform="translate(0 -218.54)"/></g><g class="cls-32"><line class="cls-16" x1="1616.72" y1="265.24" x2="1776.64" y2="216.35"/></g><g class="cls-32"><line class="cls-16" x1="2094.89" y1="1829.2" x2="2254.8" y2="1780.31"/></g><g class="cls-33"><line class="cls-17" x1="1776.64" y1="216.35" x2="2254.8" y2="1780.31"/></g><g class="cls-33"><polyline points="1776.63 216.35 1797.42 245.56 1775.74 252.19"/></g><g class="cls-33"><polyline points="2254.8 1780.31 2255.7 1744.47 2234.02 1751.1"/></g><g class="cls-34"><path d="M1970.75,1029.08,2007,1018l2,6.57-6.8,2.08a16.37,16.37,0,0,1,11.38,10c2.22,7.27-4.58,12.23-4.58,12.23a16,16,0,0,1,11.35,9.8,11.11,11.11,0,0,1-.54,8.3c-2,3.5-7.08,5-7.08,5l-26.35,8.05-2-6.6,25.31-7.74c6.2-1.9,4.7-6.8,4.7-6.8-1.56-5.1-10.51-8.49-10.51-8.49l-24.28,7.42-2-6.6,25.31-7.74c6.24-1.91,4.71-6.91,4.71-6.91-1.52-5-10.52-8.42-10.52-8.42l-24.28,7.42Zm-19.58-64L1987.4,954l2,6.57-6.8,2.08a16.37,16.37,0,0,1,11.38,10c2.22,7.27-4.58,12.23-4.58,12.23a16,16,0,0,1,11.35,9.8,11.11,11.11,0,0,1-.54,8.3c-2,3.5-7.08,5-7.08,5l-26.35,8.05-2-6.6,25.31-7.74c6.2-1.9,4.7-6.8,4.7-6.8-1.56-5.1-10.51-8.49-10.51-8.49L1960,993.87l-2-6.6,25.31-7.74c6.24-1.91,4.71-6.91,4.71-6.91-1.52-5-10.52-8.42-10.52-8.42l-24.28,7.42Zm-11.92-39a51.08,51.08,0,0,1,10.81-.3,124.2,124.2,0,0,1,13.47,2.79l25.8,6.85L1981.57,910l6.17-1.89,9.69,31.68-6.17,1.89c-33.78-10.42-49.68-8-49.68-8Zm-13.05-42.69a51.08,51.08,0,0,1,10.81-.3,124.2,124.2,0,0,1,13.47,2.79l25.8,6.85-7.77-25.41,6.17-1.89,9.69,31.68L1978.2,899c-33.78-10.42-49.68-8-49.68-8Zm-13.85-44.59,5.87-1.79a29.16,29.16,0,0,0,.89,9.94,11.72,11.72,0,0,0,5.21,6.78c3.72,1.91,8.76.37,8.76.37,11.11-3.4,6.43-18.7,6.43-18.7a36.35,36.35,0,0,0-1.34-3.56l24-7.34,7.64,25-5.74,1.75L1958.19,832l-13,4c2.91,9.5.17,16.18.17,16.18-2.74,6.67-10.47,9-10.47,9a16.25,16.25,0,0,1-12.77-1.4c-5.57-3.6-8.2-12.21-8.2-12.21A50.25,50.25,0,0,1,1912.35,838.79Z" transform="translate(0 -218.54)"/></g><g class="cls-35"><line class="cls-23" x1="1054.34" y1="1690.68" x2="2111.46" y2="1883.4"/></g><g class="cls-35"><polyline points="1054.34 1690.68 1089.84 1685.63 1085.77 1707.93"/></g><g class="cls-35"><polyline points="2111.46 1883.4 2080.04 1866.15 2075.97 1888.46"/></g><g class="cls-36"><path d="M1617.84,2114.59l6.79-37.26,6.76,1.23-1.28,7a16.37,16.37,0,0,1,14.12-5.51c7.48,1.36,8.76,9.68,8.76,9.68a16,16,0,0,1,13.92-5.58,11.11,11.11,0,0,1,7.12,4.29c2.18,3.39,1.23,8.61,1.23,8.61l-4.94,27.1-6.79-1.24,4.75-26c1.16-6.38-3.88-7.3-3.88-7.3-5.25-1-12.37,5.44-12.37,5.44l-4.55,25-6.79-1.24,4.75-26c1.17-6.42-4-7.35-4-7.35-5.11-.93-12.31,5.48-12.31,5.48l-4.55,25Zm-65.87-12,6.79-37.26,6.76,1.23-1.28,7a16.37,16.37,0,0,1,14.12-5.51c7.48,1.36,8.76,9.68,8.76,9.68a16,16,0,0,1,13.92-5.58,11.11,11.11,0,0,1,7.12,4.29c2.18,3.39,1.23,8.61,1.23,8.61l-4.94,27.1-6.79-1.24,4.75-26c1.16-6.38-3.88-7.3-3.88-7.3-5.25-1-12.37,5.44-12.37,5.44l-4.55,25-6.79-1.24,4.75-26c1.17-6.42-4-7.35-4-7.35-5.11-.93-12.31,5.48-12.31,5.48l-4.55,25Zm-32.12-42.37a16.34,16.34,0,0,0,.93,9.78c2,3.88,6.57,4.71,6.57,4.71a11.77,11.77,0,0,0,7.86-1.58,10.84,10.84,0,0,0,4.32-6.48,19,19,0,0,0-1-11,10.5,10.5,0,0,0-7-5.37,9.7,9.7,0,0,0-7.55,1.87C1520.83,2054.83,1519.84,2060.21,1519.84,2060.21Zm-10.5,34.28,1-5.73A37.76,37.76,0,0,0,1521,2093c6.31,1.15,10.84-3.57,10.84-3.57,4.53-4.72,6.28-14.29,6.28-14.29a16.58,16.58,0,0,1-12.86,4.21c-6.42-1.17-10-6.7-10-6.7-3.6-5.53-2.36-12.32-2.36-12.32a20.78,20.78,0,0,1,7.11-12.05c5.69-4.26,12.89-2.95,12.89-2.95,8.27,1.51,11.83,9,11.83,9,3.56,7.51,1.46,19,1.46,19-2.39,13.11-9.61,19.75-9.61,19.75-7.22,6.64-17.14,4.83-17.14,4.83A56.74,56.74,0,0,1,1509.34,2094.49Zm-41.4-7.23a51.07,51.07,0,0,1,4.7-9.74,124.18,124.18,0,0,1,8.67-10.69l17.93-19.77-26.14-4.77,1.16-6.35,32.59,5.94-1.16,6.35c-24.77,25.23-30,40.44-30,40.44Zm-47.28-9,1.15-6.31c6.75,4.21,10.93,5,10.93,5a12.52,12.52,0,0,0,8.39-1.39c3.55-2.28,4.37-6.77,4.37-6.77,2-10.7-13-13.44-13-13.44l-2.68-.49.83-4.56,2.37.4c14.07,2.56,15.87-7.35,15.87-7.35,1.42-7.79-7.84-9.48-7.84-9.48-5.08-.93-11.7.81-11.7.81l1.08-5.9a41.6,41.6,0,0,1,12,.1c15.58,2.84,13.43,14.61,13.43,14.61-1.63,9-12.93,10.83-12.93,10.83,11.76,5.09,9.83,15.69,9.83,15.69a15.9,15.9,0,0,1-6.79,10.39c-5.48,3.22-13.75,1.71-13.75,1.71A69.1,69.1,0,0,1,1420.66,2078.25Z" transform="translate(0 -218.54)"/></g><g class="cls-2"><line class="cls-16" x1="2111.46" y1="1883.4" x2="2281.52" y2="1883.4"/></g><g class="cls-2"><line class="cls-16" x1="966.48" y1="1685.01" x2="2281.52" y2="1685.01"/></g><g class="cls-2"><line class="cls-17" x1="2281.52" y1="1883.4" x2="2281.52" y2="1685.01"/></g><g class="cls-2"><polyline points="2281.52 1883.4 2270.18 1849.39 2292.85 1849.39"/></g><g class="cls-2"><polyline points="2281.52 1685.01 2270.18 1719.02 2292.85 1719.02"/></g><g class="cls-2"><path d="M2347,1952.73h-37.87v-6.87h7.11a16.37,16.37,0,0,1-8-12.9c0-7.6,8-10.36,8-10.36a16,16,0,0,1-8-12.69,11.11,11.11,0,0,1,2.95-7.78c2.95-2.76,8.25-2.76,8.25-2.76H2347v6.9h-26.47c-6.49,0-6.49,5.13-6.49,5.13,0,5.34,7.57,11.19,7.57,11.19H2347v6.9h-26.47c-6.52,0-6.52,5.23-6.52,5.23,0,5.2,7.6,11.12,7.6,11.12H2347Zm0,67h-37.87v-6.87h7.11a16.37,16.37,0,0,1-8-12.9c0-7.6,8-10.36,8-10.36a16,16,0,0,1-8-12.69,11.11,11.11,0,0,1,2.95-7.78c2.95-2.76,8.25-2.76,8.25-2.76H2347v6.9h-26.47c-6.49,0-6.49,5.13-6.49,5.13,0,5.34,7.57,11.19,7.57,11.19H2347v6.9h-26.47c-6.52,0-6.52,5.23-6.52,5.23,0,5.2,7.6,11.12,7.6,11.12H2347Zm-3.87,29c0-10.92-22.18-10.92-22.18-10.92-21.69,0-21.69,10.78-21.69,10.78,0,10.74,21.9,10.74,21.9,10.74C2343.12,2059.34,2343.12,2048.74,2343.12,2048.74Zm5.16.07c0,8-7.52,12.92-7.52,12.92-7.52,4.93-19.62,4.93-19.62,4.93-12.21,0-19.63-5-19.63-5a16.88,16.88,0,0,1-7.43-13.09c0-8.13,7.43-13.09,7.43-13.09,7.43-5,19.53-5,19.53-5,12.42,0,19.83,5,19.83,5A17.16,17.16,0,0,1,2348.28,2048.81Zm-1.29,56.29a51.08,51.08,0,0,1-10.43-2.88,124.18,124.18,0,0,1-12.07-6.61l-22.67-14.09v26.57h-6.45V2075h6.45c29.26,19.84,45.16,22.21,45.16,22.21Z" transform="translate(0 -218.54)"/></g><g class="cls-2"><line class="cls-16" x1="1088.35" y1="1685.01" x2="966.48" y2="1685.01"/></g><g class="cls-2"><line class="cls-16" x1="966.48" y1="1685.01" x2="1086.56" y2="1705.82"/></g><g class="cls-2"><path class="cls-17" d="M1088.35,1903.55h0a121.87,121.87,0,0,1-1.79,20.81" transform="translate(0 -218.54)"/></g><g class="cls-37"><path d="M1164.81,1979.05a6.72,6.72,0,0,0,4.32-1.76,6,6,0,1,0-8.53,0A6.48,6.48,0,0,0,1164.81,1979.05Zm0,4.29a11.18,11.18,0,0,1-7.2-3.05,10.31,10.31,0,1,1,14.59.05A11.58,11.58,0,0,1,1164.78,1983.34Zm-39.86,10a24.73,24.73,0,0,0-5.63,5.6,13.19,13.19,0,0,0-1.48,5.95,10.58,10.58,0,0,0,2.86,7.17c2.86,2.74,7.53,2.74,7.53,2.74a12.34,12.34,0,0,0,7.34-2.34,8,8,0,0,0,1.08-11.14c-1.76-2.08-6.82-5.07-6.82-5.07Zm5-5c7.22-4.74,7.22-10.57,7.22-10.57a6.88,6.88,0,0,0-2.41-5c-2.41-1.9-6.35-1.9-6.35-1.9a10.64,10.64,0,0,0-6.17,1.87,6.65,6.65,0,0,0-2.37,4.83,8.51,8.51,0,0,0,2.14,5.18C1124.15,1985.05,1129.94,1988.37,1129.94,1988.37Zm-8.75,2.16c-7.57-5.27-7.57-11.65-7.57-11.65a13.48,13.48,0,0,1,4.29-9.52c4.29-3.66,11.19-3.66,11.19-3.66a17.85,17.85,0,0,1,10.34,3.1,11.07,11.07,0,0,1,4,8.06c0,7.5-9.63,13.67-9.63,13.67,11.68,5.72,11.68,14.75,11.68,14.75a14.87,14.87,0,0,1-4.9,10.57c-4.9,4.08-12.64,4.08-12.64,4.08a20.6,20.6,0,0,1-12.29-3.85c-4.69-3.85-4.69-10.13-4.69-10.13C1110.93,1996.67,1121.18,1990.53,1121.18,1990.53Zm-31.77,28.11V2010H1098v8.61Zm-39.3-35.92a16.34,16.34,0,0,0,2.67,9.45c2.67,3.45,7.31,3.45,7.31,3.45a11.77,11.77,0,0,0,7.45-3,10.84,10.84,0,0,0,3.09-7.15,19,19,0,0,0-3-10.62,10.5,10.5,0,0,0-7.83-4,9.7,9.7,0,0,0-7.1,3.19C1050.11,1977.24,1050.11,1982.72,1050.11,1982.72Zm-4.19,35.61v-5.82a37.76,37.76,0,0,0,11.16,2.27c6.42,0,10-5.46,10-5.46,3.61-5.46,3.61-15.19,3.61-15.19a16.58,16.58,0,0,1-11.89,6.45c-6.52,0-11.06-4.8-11.06-4.8-4.53-4.8-4.53-11.7-4.53-11.7a20.78,20.78,0,0,1,4.83-13.13c4.83-5.21,12.15-5.21,12.15-5.21,8.4,0,13.25,6.75,13.25,6.75,4.85,6.75,4.85,18.47,4.85,18.47,0,13.32-5.91,21.15-5.91,21.15-5.91,7.83-16,7.83-16,7.83A56.74,56.74,0,0,1,1045.92,2018.32Zm-44.63-17.75v-5.16h31v5.16Z" transform="translate(0 -218.54)"/></g><g class="cls-38"><line class="cls-16" x1="966.48" y1="1685.01" x2="933.09" y2="1877.7"/></g><g class="cls-38"><line class="cls-16" x1="2111.46" y1="1883.4" x2="2078.07" y2="2076.09"/></g><g class="cls-39"><line class="cls-17" x1="933.09" y1="1877.7" x2="2078.07" y2="2076.09"/></g><g class="cls-39"><polyline points="933.09 1877.7 968.54 1872.34 964.67 1894.67"/></g><g class="cls-39"><polyline points="2078.07 2076.09 2046.5 2059.11 2042.63 2081.45"/></g><g class="cls-40"><path d="M1564.22,2272l6.47-37.32,6.77,1.17-1.21,7a16.37,16.37,0,0,1,14.07-5.63c7.49,1.3,8.85,9.6,8.85,9.6a16,16,0,0,1,13.87-5.7,11.11,11.11,0,0,1,7.16,4.23c2.21,3.37,1.31,8.6,1.31,8.6l-4.7,27.15L1610,2280l4.52-26.08c1.11-6.39-3.94-7.27-3.94-7.27-5.26-.91-12.32,5.55-12.32,5.55l-4.33,25-6.8-1.18,4.52-26.08c1.11-6.43-4-7.32-4-7.32-5.12-.89-12.26,5.59-12.26,5.59l-4.33,25Zm-66-11.43,6.47-37.32,6.77,1.17-1.21,7a16.37,16.37,0,0,1,14.07-5.63c7.49,1.3,8.85,9.6,8.85,9.6a16,16,0,0,1,13.87-5.7,11.11,11.11,0,0,1,7.16,4.23c2.21,3.37,1.31,8.6,1.31,8.6l-4.7,27.15-6.8-1.18,4.52-26.08c1.11-6.39-3.94-7.27-3.94-7.27-5.26-.91-12.32,5.55-12.32,5.55l-4.33,25-6.8-1.18,4.52-26.08c1.11-6.43-4-7.32-4-7.32-5.12-.89-12.26,5.59-12.26,5.59l-4.33,25Zm-28-8.77c10.76,1.86,14.54-20,14.54-20,3.7-21.37-6.91-23.21-6.91-23.21-10.58-1.83-14.32,19.75-14.32,19.75C1459.83,2250,1470.28,2251.83,1470.28,2251.83Zm-.95,5.07c-7.87-1.36-11.45-9.61-11.45-9.61-3.58-8.25-1.51-20.17-1.51-20.17,2.08-12,8.25-18.5,8.25-18.5a16.88,16.88,0,0,1,14.17-5.08c8,1.39,11.63,9.55,11.63,9.55,3.63,8.17,1.56,20.09,1.56,20.09-2.12,12.23-8.28,18.69-8.28,18.69A17.16,17.16,0,0,1,1469.33,2256.91ZM1414.09,2246l.88-5.09,10.17,1.76,7-40.13-10.61.78.91-5.22,17.71-1.29-8.15,47,10.17,1.76-.88,5.09Zm-40.87-27.61,16.7,2.89,3.92-22.61Zm12.8,22.75,2.49-14.4-22.89-4,.89-5.12,28.32-27.37,6.36,1.1-5.36,30.93,6.8,1.18-1,5.53-6.8-1.18-2.49,14.4Z" transform="translate(0 -218.54)"/></g><g class="cls-25"><line class="cls-21" x1="2111.46" y1="1883.4" x2="2291.33" y2="2047.9"/></g><g class="cls-25"><line class="cls-21" x1="3338.17" y1="542.11" x2="3518.04" y2="706.61"/></g><g class="cls-25"><line class="cls-23" x1="2291.33" y1="2047.9" x2="3518.04" y2="706.61"/></g><g class="cls-25"><polyline points="2291.33 2047.89 2305.92 2015.15 2322.65 2030.45"/></g><g class="cls-25"><polyline points="3518.04 706.61 3486.72 724.05 3503.45 739.35"/></g><g class="cls-41"><path d="M3000.81,1587.69l-27.95-25.56,4.64-5.07,5.25,4.8a16.37,16.37,0,0,1,2.84-14.89c5.13-5.61,12.86-2.28,12.86-2.28a16,16,0,0,1,2.67-14.76,11.11,11.11,0,0,1,7.42-3.75c4,0,7.95,3.53,7.95,3.53l20.33,18.59-4.66,5.1-19.53-17.86c-4.79-4.38-8.25-.59-8.25-.59-3.6,3.94-2,13.37-2,13.37l18.74,17.13-4.66,5.1L2997,1552.69c-4.81-4.4-8.34-.54-8.34-.54-3.51,3.83-1.9,13.34-1.9,13.34l18.74,17.13Zm-45.19,49.41-27.95-25.56,4.64-5.07,5.25,4.8a16.37,16.37,0,0,1,2.84-14.89c5.13-5.61,12.86-2.28,12.86-2.28a16,16,0,0,1,2.67-14.76,11.11,11.11,0,0,1,7.42-3.75c4,0,7.95,3.53,7.95,3.53l20.33,18.59-4.66,5.1L2967.44,1585c-4.79-4.38-8.25-.59-8.25-.59-3.6,3.94-2,13.37-2,13.37l18.74,17.13-4.66,5.1-19.53-17.86c-4.81-4.4-8.34-.54-8.34-.54-3.51,3.83-1.9,13.34-1.9,13.34l18.74,17.13Zm-27.51,30.08-3.81-3.48,7-7.62-30.06-27.49-5.06,9.36-3.91-3.58,8.46-15.61,35.23,32.22,7-7.62,3.81,3.48Zm-45.29,19.55,11.44-12.51-16.93-15.49Zm26.06,1.48-10.78-9.86-15.68,17.14-3.83-3.51-7.8-38.6,4.35-4.76,23.16,21.18,4.66-5.1,4.14,3.79-4.66,5.1,10.78,9.86ZM2871.44,1706a15.73,15.73,0,0,0-8.57-4.27c-4.25-.32-7.4,3.13-7.4,3.13a12.06,12.06,0,0,0-2.9,7.51,10.51,10.51,0,0,0,3.08,7.07,18.29,18.29,0,0,0,9.69,4.82,10.72,10.72,0,0,0,8.23-3.18,9.76,9.76,0,0,0,2.41-7.36C2875.4,1709.62,2871.44,1706,2871.44,1706Zm-22.28,7.88a16.86,16.86,0,0,1,3.65-13.44,16.48,16.48,0,0,1,10.78-5.15c6.21-.15,11.39,4.58,11.39,4.58a20.86,20.86,0,0,1,6.52,12.51c.57,7.07-4.44,12.55-4.44,12.55-5.77,6.3-14.08,5.22-14.08,5.22-8.32-1.09-17.32-9.32-17.32-9.32-9.91-9.06-11.66-18.15-11.66-18.15-1.75-9.09,5-16.5,5-16.5,3.11-3.4,9.21-7.17,9.21-7.17l4.43,4c-7,3.5-10.11,6.92-10.11,6.92C2833.64,1699.69,2849.16,1713.88,2849.16,1713.88Z" transform="translate(0 -218.54)"/></g><g class="cls-2"><line class="cls-16" x1="3582.12" y1="1315.8" x2="3698.53" y2="1685.01"/></g><g class="cls-2"><line class="cls-16" x1="3698.53" y1="1685.01" x2="3311.39" y2="1685.01"/></g><g class="cls-2"><path class="cls-17" d="M3582.12,1534.34a387.13,387.13,0,0,0-270.73,369.21" transform="translate(0 -218.54)"/></g><g class="cls-42"><path d="M3266.37,1794.17a6.72,6.72,0,0,0,4.32-1.76,6,6,0,1,0-8.53,0A6.48,6.48,0,0,0,3266.37,1794.17Zm0,4.29a11.18,11.18,0,0,1-7.2-3.05,10.31,10.31,0,1,1,14.59.05A11.58,11.58,0,0,1,3266.33,1798.45ZM3215,1834v-6.14a29.16,29.16,0,0,0,9.76,2.06,11.72,11.72,0,0,0,8-3c2.91-3,2.91-8.26,2.91-8.26,0-11.61-16-11.61-16-11.61a36.36,36.36,0,0,0-3.8.24v-25.11H3242v6H3221.9v13.6c9.94,0,15.52,4.57,15.52,4.57,5.58,4.57,5.58,12.66,5.58,12.66a16.25,16.25,0,0,1-5.07,11.8c-5.07,4.27-14.07,4.27-14.07,4.27A50.25,50.25,0,0,1,3215,1834Zm-24-.21v-8.61h8.61v8.61Zm-45.69,0v-6c3-7,12.14-15.27,12.14-15.27l3.94-3.52c7.6-6.87,7.6-13.64,7.6-13.64a9.87,9.87,0,0,0-2.6-6.8c-2.6-2.48-7.13-2.48-7.13-2.48-5.37,0-12.66,4.15-12.66,4.15v-6.07a35.61,35.61,0,0,1,13.64-3.24,18.58,18.58,0,0,1,11.65,3.91c4.39,3.91,4.39,10.36,4.39,10.36a17.28,17.28,0,0,1-2.21,8.23c-2.21,3.59-8.25,8.72-8.25,8.72l-2.65,2.27c-8.27,7-9.56,13.39-9.56,13.39H3176v6Zm-39.83,0a51.08,51.08,0,0,1,2.88-10.43,124.17,124.17,0,0,1,6.61-12.07l14.09-22.67h-26.57v-6.45h33.13v6.45c-19.84,29.26-22.22,45.16-22.22,45.16Z" transform="translate(0 -218.54)"/></g><g class="cls-43"><line class="cls-16" x1="3261.83" y1="300" x2="3424.01" y2="248.86"/></g><g class="cls-43"><line class="cls-16" x1="3379.78" y1="674.08" x2="3541.96" y2="622.95"/></g><g class="cls-2"><line class="cls-17" x1="3424.01" y1="248.86" x2="3541.96" y2="622.95"/></g><g class="cls-2"><polyline points="3424.01 248.86 3445.05 277.89 3423.43 284.7"/></g><g class="cls-2"><polyline points="3541.96 622.95 3542.55 587.1 3520.92 593.92"/></g><g class="cls-32"><path d="M3515.65,718.44,3551.77,707l2.07,6.55-6.78,2.14a16.37,16.37,0,0,1,11.46,9.92c2.29,7.25-4.47,12.27-4.47,12.27a16,16,0,0,1,11.43,9.71,11.11,11.11,0,0,1-.47,8.3c-2,3.51-7,5.11-7,5.11l-26.28,8.28-2.08-6.59,25.24-8c6.19-2,4.65-6.84,4.65-6.84-1.6-5.09-10.58-8.4-10.58-8.4l-24.21,7.63-2.08-6.59,25.24-8c6.22-2,4.65-6.95,4.65-6.95-1.56-5-10.6-8.32-10.6-8.32L3517.71,725Zm-20.14-63.86,36.12-11.39,2.07,6.55-6.79,2.14a16.37,16.37,0,0,1,11.46,9.91c2.29,7.25-4.47,12.27-4.47,12.27a16,16,0,0,1,11.43,9.71,11.11,11.11,0,0,1-.47,8.3c-2,3.51-7,5.11-7,5.11l-26.28,8.28-2.08-6.59,25.24-8c6.19-2,4.65-6.84,4.65-6.84-1.6-5.09-10.58-8.4-10.58-8.4l-24.21,7.63-2.08-6.59,25.24-8c6.22-2,4.65-6.95,4.65-6.95-1.56-5-10.6-8.32-10.6-8.32l-24.21,7.63Zm14.72-37.51a24.73,24.73,0,0,0-7-3.69,13.19,13.19,0,0,0-6.12.37,10.58,10.58,0,0,0-6,4.88c-1.75,3.55-.35,8-.35,8a12.33,12.33,0,0,0,4.44,6.3,8,8,0,0,0,11-2.32c1.45-2.3,2.79-8,2.79-8Zm6.23,3.3c6.69,5.46,12.25,3.71,12.25,3.71a6.88,6.88,0,0,0,4-3.8c1.09-2.87-.1-6.62-.1-6.62a10.64,10.64,0,0,0-3.64-5.33,6.65,6.65,0,0,0-5.32-.81,8.51,8.51,0,0,0-4.29,3.6C3517.88,613.85,3516.46,620.37,3516.46,620.37Zm-4.69-7.7c2.75-8.8,8.83-10.72,8.83-10.72a13.48,13.48,0,0,1,10.37,1.23c4.78,3,6.86,9.58,6.86,9.58a17.85,17.85,0,0,1,.15,10.79,11.07,11.07,0,0,1-6.49,6.2c-7.15,2.25-15.93-5.07-15.93-5.07-1.94,12.86-10.56,15.58-10.56,15.58a14.87,14.87,0,0,1-11.55-1.5c-5.36-3.45-7.69-10.83-7.69-10.83a20.59,20.59,0,0,1,0-12.88c2.26-5.63,8.25-7.52,8.25-7.52C3502.83,604.74,3511.77,612.67,3511.77,612.67Zm-42.62-43,6.12-1.93c-.57,7.93.71,12,.71,12a12.51,12.51,0,0,0,5.15,6.77c3.67,2.08,8,.7,8,.7,10.38-3.27,5.79-17.81,5.79-17.81l-.82-2.59,4.42-1.39.76,2.28c4.3,13.64,13.91,10.61,13.91,10.61,7.55-2.38,4.72-11.36,4.72-11.36-1.55-4.92-6.18-10-6.18-10l5.72-1.8a41.6,41.6,0,0,1,5.53,10.69c4.76,15.1-6.65,18.7-6.65,18.7-8.68,2.74-15.61-6.38-15.61-6.38,1,12.78-9.28,16-9.28,16a15.9,15.9,0,0,1-12.36-1.15c-5.41-3.34-7.93-11.36-7.93-11.36A69.08,69.08,0,0,1,3469.15,569.69Zm-12.74-39.13,4.92-1.55,3.1,9.84,38.85-12.25-5.57-9.07,5.06-1.59,9.27,15.14-45.53,14.36,3.1,9.84-4.92,1.55Z" transform="translate(0 -218.54)"/></g><g class="cls-2"><line class="cls-16" x1="1921.18" y1="1261.04" x2="2050.81" y2="1685.01"/></g><g class="cls-2"><line class="cls-16" x1="2050.81" y1="1685.01" x2="1607.44" y2="1685.01"/></g><g class="cls-2"><path class="cls-17" d="M1921.18,1479.58a443.35,443.35,0,0,0-313.74,424" transform="translate(0 -218.54)"/></g><g class="cls-44"><path d="M1699.41,1593.66a6.72,6.72,0,0,0,4.32-1.76,6,6,0,1,0-8.53,0A6.48,6.48,0,0,0,1699.41,1593.66Zm0,4.29a11.18,11.18,0,0,1-7.2-3.05,10.31,10.31,0,1,1,14.59.05A11.58,11.58,0,0,1,1699.38,1597.94Zm-37.56,31.42c10.92,0,10.92-22.18,10.92-22.18,0-21.69-10.78-21.69-10.78-21.69-10.74,0-10.74,21.9-10.74,21.9C1651.22,1629.37,1661.82,1629.37,1661.82,1629.37Zm-.07,5.16c-8,0-12.92-7.52-12.92-7.52-4.93-7.52-4.93-19.62-4.93-19.62,0-12.21,5-19.63,5-19.63a16.88,16.88,0,0,1,13.1-7.43c8.13,0,13.1,7.43,13.1,7.43,5,7.43,5,19.53,5,19.53,0,12.41-5,19.83-5,19.83A17.16,17.16,0,0,1,1661.75,1634.53Zm-37.73-1.29v-8.61h8.61v8.61Zm-44.36-.38v-6.42c7.39,2.93,11.65,2.93,11.65,2.93a12.51,12.51,0,0,0,8-2.88c3.09-2.88,3.09-7.45,3.09-7.45,0-10.88-15.24-10.88-15.24-10.88h-2.72v-4.64l2.41,0c14.3,0,14.3-10.08,14.3-10.08,0-7.92-9.42-7.92-9.42-7.92-5.16,0-11.37,2.89-11.37,2.89v-6a41.6,41.6,0,0,1,11.86-2.06c15.83,0,15.83,12,15.83,12,0,9.1-10.78,13-10.78,13,12.49,2.89,12.49,13.67,12.49,13.67a15.9,15.9,0,0,1-4.81,11.44c-4.81,4.15-13.22,4.15-13.22,4.15A69.1,69.1,0,0,1,1579.65,1632.85Zm-41.15.38a51.07,51.07,0,0,1,2.88-10.43,124.17,124.17,0,0,1,6.61-12.07l14.09-22.67H1535.5v-6.45h33.13v6.45c-19.84,29.26-22.22,45.16-22.22,45.16Z" transform="translate(0 -218.54)"/></g><g class="cls-32"><line class="cls-16" x1="1616.72" y1="265.24" x2="1511.02" y2="297.55"/></g><g class="cls-32"><line class="cls-16" x1="2111.46" y1="1883.4" x2="2005.76" y2="1915.72"/></g><g class="cls-32"><line class="cls-17" x1="1511.02" y1="297.55" x2="2005.76" y2="1915.72"/></g><g class="cls-32"><polyline points="1511.02 297.55 1531.8 326.76 1510.12 333.39"/></g><g class="cls-32"><polyline points="2005.76 1915.72 2006.65 1879.88 1984.97 1886.51"/></g><g class="cls-45"><path d="M1704.89,1374.13l36.22-11.07,2,6.57-6.8,2.08a16.37,16.37,0,0,1,11.38,10c2.22,7.27-4.58,12.23-4.58,12.23a16,16,0,0,1,11.35,9.8,11.11,11.11,0,0,1-.54,8.3c-2,3.5-7.08,5-7.08,5l-26.35,8.05-2-6.6,25.31-7.74c6.2-1.9,4.7-6.8,4.7-6.8-1.56-5.1-10.51-8.49-10.51-8.49l-24.28,7.42-2-6.6,25.31-7.74c6.24-1.91,4.71-6.91,4.71-6.91-1.52-5-10.52-8.42-10.52-8.42l-24.28,7.42Zm-19.58-64,36.22-11.07,2,6.57-6.8,2.08a16.37,16.37,0,0,1,11.38,10c2.22,7.27-4.58,12.23-4.58,12.23a16,16,0,0,1,11.35,9.8,11.11,11.11,0,0,1-.54,8.3c-2,3.5-7.08,5-7.08,5l-26.35,8.05-2-6.6,25.31-7.74c6.2-1.9,4.7-6.8,4.7-6.8-1.56-5.1-10.51-8.49-10.51-8.49l-24.28,7.42-2-6.6,25.31-7.74c6.24-1.91,4.71-6.91,4.71-6.91-1.52-5-10.52-8.42-10.52-8.42l-24.28,7.42Zm-11.92-39a51.08,51.08,0,0,1,10.81-.3,124.19,124.19,0,0,1,13.47,2.79l25.8,6.85-7.77-25.41,6.17-1.89,9.69,31.68-6.17,1.89c-33.78-10.42-49.68-8-49.68-8Zm21.76-51.69a16.34,16.34,0,0,0-8.26,5.31c-2.52,3.56-1.17,8-1.17,8a11.77,11.77,0,0,0,5,6.25,10.84,10.84,0,0,0,7.74.86,19,19,0,0,0,9.28-6,10.5,10.5,0,0,0,1.56-8.66,9.7,9.7,0,0,0-5.13-5.85C1700.39,1217.82,1695.15,1219.42,1695.15,1219.42Zm-35.27,6.41,5.57-1.7a37.75,37.75,0,0,0,1.09,11.33c1.88,6.14,8.15,8,8.15,8,6.27,1.86,15.58-1,15.58-1a16.58,16.58,0,0,1-9.65-9.49c-1.91-6.24,1.35-12,1.35-12,3.26-5.74,9.86-7.76,9.86-7.76a20.79,20.79,0,0,1,14,.78c6.4,3.09,8.54,10.1,8.54,10.1,2.46,8-2.58,14.65-2.58,14.65-5,6.61-16.24,10-16.24,10-12.74,3.89-22,.53-22,.53-9.22-3.36-12.16-13-12.16-13A56.73,56.73,0,0,1,1659.88,1225.83Zm-13.39-42,5.87-1.79a29.16,29.16,0,0,0,.89,9.94,11.72,11.72,0,0,0,5.21,6.78c3.72,1.91,8.76.37,8.76.37,11.11-3.4,6.43-18.7,6.43-18.7a36.34,36.34,0,0,0-1.34-3.56l24-7.34,7.64,25-5.74,1.75-5.87-19.21-13,4c2.91,9.5.17,16.18.17,16.18-2.74,6.67-10.47,9-10.47,9a16.25,16.25,0,0,1-12.77-1.4c-5.57-3.6-8.2-12.21-8.2-12.21A50.25,50.25,0,0,1,1646.49,1183.83Z" transform="translate(0 -218.54)"/></g><g class="cls-2"><line class="cls-17" x1="1655.7" y1="392.73" x2="3291.07" y2="392.73"/></g><g class="cls-2"><polyline points="1655.7 392.73 1689.71 381.39 1689.71 404.07"/></g><g class="cls-2"><polyline points="3291.07 392.73 3257.05 381.39 3257.05 404.07"/></g><g class="cls-2"><path d="M2544.24,599.37V561.5h6.87v7.11a16.37,16.37,0,0,1,12.9-8c7.6,0,10.36,8,10.36,8a16,16,0,0,1,12.69-8,11.11,11.11,0,0,1,7.78,2.95c2.76,2.95,2.76,8.25,2.76,8.25v27.55h-6.91V572.9c0-6.49-5.13-6.49-5.13-6.49-5.34,0-11.19,7.57-11.19,7.57v25.39h-6.91V572.9c0-6.52-5.23-6.52-5.23-6.52-5.2,0-11.12,7.6-11.12,7.6v25.39Zm-67,0V561.5h6.87v7.11a16.37,16.37,0,0,1,12.9-8c7.6,0,10.36,8,10.36,8a16,16,0,0,1,12.69-8,11.11,11.11,0,0,1,7.78,2.95c2.76,2.95,2.76,8.25,2.76,8.25v27.55h-6.91V572.9c0-6.49-5.13-6.49-5.13-6.49-5.34,0-11.19,7.57-11.19,7.57v25.39h-6.91V572.9c0-6.52-5.23-6.52-5.23-6.52-5.2,0-11.12,7.6-11.12,7.6v25.39Zm-40.77,0a51.06,51.06,0,0,1,2.88-10.43,124.17,124.17,0,0,1,6.61-12.07l14.09-22.67h-26.57v-6.45h33.13v6.45c-19.84,29.26-22.22,45.16-22.22,45.16Zm-44.64,0a51.07,51.07,0,0,1,2.88-10.43,124.21,124.21,0,0,1,6.61-12.07l14.09-22.67h-26.57v-6.45H2422v6.45c-19.84,29.26-22.22,45.16-22.22,45.16Zm-46.7.21v-6.14a29.16,29.16,0,0,0,9.76,2.06,11.72,11.72,0,0,0,8-3c2.91-3,2.91-8.27,2.91-8.27,0-11.61-16-11.61-16-11.61a36.36,36.36,0,0,0-3.8.24V547.76h26.12v6h-20.09v13.6c9.94,0,15.52,4.57,15.52,4.57,5.58,4.57,5.58,12.66,5.58,12.66a16.25,16.25,0,0,1-5.07,11.8c-5.07,4.27-14.07,4.27-14.07,4.27A50.25,50.25,0,0,1,2345.17,599.58Z" transform="translate(0 -218.54)"/></g><g class="cls-2"><line class="cls-16" x1="3379.78" y1="674.08" x2="3379.78" y2="1883.4"/></g><g class="cls-2"><line class="cls-17" x1="2111.46" y1="1883.4" x2="3379.78" y2="1883.4"/></g><g class="cls-2"><polyline points="2111.46 1883.4 2145.47 1872.07 2145.47 1894.74"/></g><g class="cls-2"><polyline points="3379.78 1883.4 3345.77 1872.07 3345.77 1894.74"/></g><g class="cls-32"><path d="M2816.47,2090v-37.87h6.87v7.11a16.37,16.37,0,0,1,12.9-8c7.6,0,10.36,8,10.36,8a16,16,0,0,1,12.69-8,11.11,11.11,0,0,1,7.78,2.95c2.76,2.95,2.76,8.25,2.76,8.25V2090h-6.91v-26.47c0-6.49-5.13-6.49-5.13-6.49-5.34,0-11.19,7.57-11.19,7.57V2090h-6.91v-26.47c0-6.52-5.23-6.52-5.23-6.52-5.2,0-11.12,7.6-11.12,7.6V2090Zm-67,0v-37.87h6.87v7.11a16.37,16.37,0,0,1,12.9-8c7.6,0,10.36,8,10.36,8a16,16,0,0,1,12.69-8,11.11,11.11,0,0,1,7.78,2.95c2.76,2.95,2.76,8.25,2.76,8.25V2090H2796v-26.47c0-6.49-5.13-6.49-5.13-6.49-5.34,0-11.19,7.57-11.19,7.57V2090h-6.91v-26.47c0-6.52-5.23-6.52-5.23-6.52-5.2,0-11.12,7.6-11.12,7.6V2090Zm-40.77,0a51.06,51.06,0,0,1,2.88-10.43,124.17,124.17,0,0,1,6.61-12.07l14.09-22.67h-26.57v-6.45h33.13v6.45c-19.84,29.26-22.22,45.16-22.22,45.16Zm-45-20.23h16.95v-22.95Zm16.5,20.23v-14.61H2657v-5.2l23.23-31.8h6.45v31.39h6.91v5.61h-6.91V2090Zm-61.14-20.23h16.95v-22.95Zm16.5,20.23v-14.61h-23.23v-5.2l23.23-31.8h6.45v31.39H2649v5.61h-6.91V2090Z" transform="translate(0 -218.54)"/></g><g class="cls-2"><line class="cls-16" x1="2111.46" y1="1883.4" x2="3398.21" y2="1883.4"/></g><g class="cls-2"><line class="cls-16" x1="3379.78" y1="674.08" x2="3398.21" y2="674.08"/></g><g class="cls-2"><line class="cls-17" x1="3398.21" y1="1883.4" x2="3398.21" y2="674.08"/></g><g class="cls-2"><polyline points="3398.21 1883.4 3386.88 1849.39 3409.55 1849.39"/></g><g class="cls-2"><polyline points="3398.21 674.08 3386.88 708.09 3409.55 708.09"/></g><g class="cls-32"><path d="M3463.68,1267.72h-37.87v-6.87h7.11a16.37,16.37,0,0,1-8-12.9c0-7.6,8-10.36,8-10.36a16,16,0,0,1-8-12.69,11.11,11.11,0,0,1,2.95-7.78c2.95-2.76,8.25-2.76,8.25-2.76h27.55v6.9h-26.47c-6.49,0-6.49,5.13-6.49,5.13,0,5.34,7.57,11.19,7.57,11.19h25.39v6.9h-26.47c-6.52,0-6.52,5.23-6.52,5.23,0,5.2,7.6,11.12,7.6,11.12h25.39Zm0,67h-37.87v-6.87h7.11a16.37,16.37,0,0,1-8-12.9c0-7.6,8-10.36,8-10.36a16,16,0,0,1-8-12.69,11.11,11.11,0,0,1,2.95-7.78c2.95-2.76,8.25-2.76,8.25-2.76h27.55v6.9h-26.47c-6.49,0-6.49,5.13-6.49,5.13,0,5.34,7.57,11.19,7.57,11.19h25.39v6.9h-26.47c-6.52,0-6.52,5.23-6.52,5.23,0,5.2,7.6,11.12,7.6,11.12h25.39Zm0,40.77a51.08,51.08,0,0,1-10.43-2.88,124.18,124.18,0,0,1-12.07-6.61l-22.67-14.09v26.57h-6.45v-33.13h6.45c29.26,19.84,45.16,22.21,45.16,22.21Zm0,49.45h-6c-7-3-15.28-12.14-15.28-12.14l-3.52-3.94c-6.87-7.6-13.64-7.6-13.64-7.6a9.87,9.87,0,0,0-6.8,2.6c-2.48,2.6-2.48,7.13-2.48,7.13,0,5.37,4.15,12.66,4.15,12.66H3414a35.61,35.61,0,0,1-3.24-13.64,18.58,18.58,0,0,1,3.91-11.65c3.91-4.39,10.36-4.39,10.36-4.39a17.28,17.28,0,0,1,8.23,2.21c3.59,2.21,8.72,8.25,8.72,8.25l2.27,2.65c7,8.26,13.39,9.56,13.39,9.56v-22.42h6Zm-20.23,40.17v-16.95h-22.95Zm20.23-16.5h-14.61v23.23h-5.2l-31.81-23.23v-6.45h31.39v-6.9h5.61v6.9h14.61Z" transform="translate(0 -218.54)"/></g></svg>